<svg width="45" height="44" viewBox="0 0 45 44" fill="none" xmlns="http://www.w3.org/2000/svg">
<path d="M22.5 0.998535C19.5453 0.998535 16.6194 1.56829 13.8896 2.67527C11.1598 3.78225 8.67942 5.40477 6.5901 7.4502C2.37053 11.5811 0 17.1839 0 23.0259C0 32.762 6.4575 41.0223 15.39 43.9519C16.515 44.1281 16.875 43.4453 16.875 42.8505V39.1279C10.6425 40.4495 9.315 36.1762 9.315 36.1762C8.28 33.6211 6.8175 32.9382 6.8175 32.9382C4.77 31.5725 6.975 31.6166 6.975 31.6166C9.225 31.7708 10.4175 33.8854 10.4175 33.8854C12.375 37.2336 15.6825 36.2423 16.965 35.7137C17.1675 34.2819 17.7525 33.3127 18.3825 32.762C13.3875 32.2113 8.145 30.317 8.145 21.9245C8.145 19.4795 9 17.5191 10.4625 15.9551C10.2375 15.4044 9.45 13.1136 10.6875 10.1399C10.6875 10.1399 12.5775 9.54515 16.875 12.3867C18.6525 11.9021 20.5875 11.6598 22.5 11.6598C24.4125 11.6598 26.3475 11.9021 28.125 12.3867C32.4225 9.54515 34.3125 10.1399 34.3125 10.1399C35.55 13.1136 34.7625 15.4044 34.5375 15.9551C36 17.5191 36.855 19.4795 36.855 21.9245C36.855 30.339 31.59 32.1893 26.5725 32.74C27.3825 33.4228 28.125 34.7665 28.125 36.815V42.8505C28.125 43.4453 28.485 44.1501 29.6325 43.9519C38.565 41.0002 45 32.762 45 23.0259C45 20.1332 44.418 17.2689 43.2873 14.5964C42.1566 11.9239 40.4992 9.49563 38.4099 7.4502C36.3206 5.40477 33.8402 3.78225 31.1104 2.67527C28.3806 1.56829 25.4547 0.998535 22.5 0.998535Z" fill="#232323"/>
</svg>
