<svg xmlns="http://www.w3.org/2000/svg" viewBox="0 0 579.02 563.66"><defs><style>.cls-1{fill:#0673fa;}.cls-2{fill:#e3170a;}.cls-3{fill:#f9fee5;}.cls-4{fill:#f3a712;}.cls-5{fill:#a204e6;}.cls-6{fill:#4aff05;}</style></defs><g id="Camada_2" data-name="Camada 2"><g id="Camada_1-2" data-name="Camada 1"><rect class="cls-1" x="0.02" y="399.5" width="155" height="155" rx="8"/><rect x="7.02" y="9" width="572" height="229" rx="8"/><path d="M7,203.52,49.72,32.75H97.85a61.93,61.93,0,0,1,19.8,2.88A32,32,0,0,1,131.4,44.3,27.78,27.78,0,0,1,138,59.15q1.37,9.08-1.65,21.45l-24.48,96.8q-6,24.75-22.55,36.3T50,225.25H7m33.65-1.65h9.07a16.4,16.4,0,0,0,9.63-2.89c2.75-1.93,4.85-5.54,6.32-10.86l40.15-161.7q1.92-8-.55-10.87t-8-2.88H87.67Z"/><path d="M195.75,34.4l-22.28,89.1h31.08l-.55,1.65H172.92L148.45,223.6H180.9l-.55,1.65H109.67l47.85-192.5h70.4l-.55,1.65Z"/><path d="M279.62,101l13.75-55.28q3.3-14-7.15-14a12.89,12.89,0,0,0-9.07,3.57q-3.86,3.59-5.5,10.45L260.37,90.5a32,32,0,0,0-1.1,7.56A10.06,10.06,0,0,0,261.2,104a27.12,27.12,0,0,0,5.91,5.78,86.29,86.29,0,0,0,11.14,6.87l8.25,3.85a37.19,37.19,0,0,1,10.86,8.11A26.35,26.35,0,0,1,303,139.31a42.33,42.33,0,0,1,1,14.3A131,131,0,0,1,300.52,173l-1.1,4.4q-6,24.19-22.41,37.4T236.45,228q-23.92,0-33.42-12.93t-3.16-37.67l4.95-20.35h38.5l-13.75,55.27q-1.65,6.6.27,10.31c1.29,2.48,3.76,3.72,7.43,3.72a13.1,13.1,0,0,0,9.21-3.72,20.42,20.42,0,0,0,5.64-10.31l11.55-45.65a31.65,31.65,0,0,0,1.1-7.42,10.47,10.47,0,0,0-1.79-5.78,21.62,21.62,0,0,0-5.64-5.5,101.67,101.67,0,0,0-10.44-6.32L237.55,137a35.55,35.55,0,0,1-10.87-8.25,27.22,27.22,0,0,1-5.63-11,44.1,44.1,0,0,1-1-14.71,123.42,123.42,0,0,1,3.44-19.39l1.38-5.5q5.78-22.82,21.58-35.47T285.67,30q24.19,0,34,13.06t3.71,37.26L318.12,101Z"/><path d="M383.29,32.75l-47.85,192.5h-38.5l47.85-192.5Z"/><path d="M386.86,210.12q-1.65,7.15.42,10.59a6.74,6.74,0,0,0,6.18,3.44q4.68,0,9.77-4.54T410.51,206l19.25-77.83H417.39l.55-1.65h50.87l-24.47,98.73H417.66l4.13-17.05h-.55a40.61,40.61,0,0,1-16.36,14.43A46.74,46.74,0,0,1,383.56,228,34.45,34.45,0,0,1,370,225.25a24.25,24.25,0,0,1-10.59-8.67q-4.12-5.91-5.08-15.53t2.33-23.38l24.2-97.35q6.33-25.57,22.83-37.95T442.69,30a56.81,56.81,0,0,1,19.8,3.16A29.78,29.78,0,0,1,476,42.65a31.72,31.72,0,0,1,6.19,15.81q1.25,9.48-1.79,21.86l-8.25,33.28h-38.5l17.05-67.93q1.92-8-.68-11a8.84,8.84,0,0,0-7-3,14.88,14.88,0,0,0-8.66,3q-4.26,3-6.46,11Z"/><path d="M579,84.71,543.89,225.25H505.11l-3-185.63h-.55l-46.2,185.63h-1.65l47.85-192.5h39.32L544.44,214H545L579,78Z"/><rect class="cls-2" x="0.02" width="572" height="229" rx="8"/><path class="cls-3" d="M0,194.52,42.72,23.75H90.85a61.93,61.93,0,0,1,19.8,2.88A32,32,0,0,1,124.4,35.3,27.78,27.78,0,0,1,131,50.15q1.37,9.08-1.65,21.45l-24.48,96.8q-6,24.75-22.55,36.3T43,216.25H0m33.65-1.65h9.07a16.4,16.4,0,0,0,9.63-2.89c2.75-1.93,4.85-5.54,6.32-10.86L98.82,39.15q1.92-8-.55-10.87t-8-2.88H80.67Z"/><path class="cls-3" d="M188.75,25.4l-22.28,89.1h31.08l-.55,1.65H165.92L141.45,214.6H173.9l-.55,1.65H102.67l47.85-192.5h70.4l-.55,1.65Z"/><path class="cls-3" d="M272.62,92l13.75-55.28q3.3-14-7.15-14a12.89,12.89,0,0,0-9.07,3.57q-3.86,3.59-5.5,10.45L253.37,81.5a32,32,0,0,0-1.1,7.56A10.06,10.06,0,0,0,254.2,95a27.12,27.12,0,0,0,5.91,5.78,86.29,86.29,0,0,0,11.14,6.87l8.25,3.85a37.19,37.19,0,0,1,10.86,8.11A26.35,26.35,0,0,1,296,130.31a42.33,42.33,0,0,1,1,14.3A131,131,0,0,1,293.52,164l-1.1,4.4q-6,24.19-22.41,37.4T229.45,219q-23.92,0-33.42-12.93t-3.16-37.67l4.95-20.35h38.5l-13.75,55.27q-1.65,6.6.27,10.31c1.29,2.48,3.76,3.72,7.43,3.72a13.1,13.1,0,0,0,9.21-3.72,20.42,20.42,0,0,0,5.64-10.31l11.55-45.65a31.65,31.65,0,0,0,1.1-7.42,10.47,10.47,0,0,0-1.79-5.78,21.62,21.62,0,0,0-5.64-5.5,101.67,101.67,0,0,0-10.44-6.32L230.55,128a35.55,35.55,0,0,1-10.87-8.25,27.22,27.22,0,0,1-5.63-11,44.1,44.1,0,0,1-1-14.71,123.42,123.42,0,0,1,3.44-19.39l1.38-5.5q5.78-22.82,21.58-35.47T278.67,21q24.19,0,34,13.06t3.71,37.26L311.12,92Z"/><path class="cls-3" d="M376.29,23.75l-47.85,192.5h-38.5l47.85-192.5Z"/><path class="cls-3" d="M379.86,201.12q-1.65,7.15.42,10.59a6.74,6.74,0,0,0,6.18,3.44q4.68,0,9.77-4.54T403.51,197l19.25-77.83H410.39l.55-1.65h50.87l-24.47,98.73H410.66l4.13-17.05h-.55a40.61,40.61,0,0,1-16.36,14.43A46.74,46.74,0,0,1,376.56,219,34.45,34.45,0,0,1,363,216.25a24.25,24.25,0,0,1-10.59-8.67q-4.12-5.91-5.08-15.53t2.33-23.38l24.2-97.35q6.33-25.57,22.83-37.95T435.69,21a56.81,56.81,0,0,1,19.8,3.16A29.78,29.78,0,0,1,469,33.65a31.72,31.72,0,0,1,6.19,15.81q1.25,9.48-1.79,21.86l-8.25,33.28h-38.5l17.05-67.93q1.92-8-.68-11a8.84,8.84,0,0,0-7-3,14.88,14.88,0,0,0-8.66,3q-4.26,3-6.46,11Z"/><path class="cls-3" d="M572,75.71,536.89,216.25H498.11l-3-185.63h-.55l-46.2,185.63h-1.65l47.85-192.5h39.32L537.44,205H538L572,69Z"/><rect x="7.02" y="254" width="338" height="135" rx="8"/><path d="M58.08,331.25h-6l-1.41-4.77H41.13l-1.35,4.77h-6L44.1,311.78l1.83.12,1.77-.12Zm-12.3-14.49-3.42,6.69h7Z"/><path d="M70.73,326.75a21.59,21.59,0,0,0,4.85-.54,19.32,19.32,0,0,0,4.48-1.62l1.09,5a20.59,20.59,0,0,1-4.56,1.56,23.32,23.32,0,0,1-5,.54q-5.91,0-9.19-2.75a9.29,9.29,0,0,1-3.28-7.54,9,9,0,0,1,3.37-7.52q3.38-2.66,9.52-2.65a23.63,23.63,0,0,1,4.7.46,20.65,20.65,0,0,1,4.37,1.4l-1.29,4.95a17.39,17.39,0,0,0-4.07-1.49,20.19,20.19,0,0,0-4.54-.49,12.33,12.33,0,0,0-6.44,1.41,4.41,4.41,0,0,0-2.29,4,4.36,4.36,0,0,0,2.19,3.88A11.26,11.26,0,0,0,70.73,326.75Z"/><path d="M102.36,326.3l-.09,2.46.09,2.49-13.83-.09-5,.09.93-7.5-.93-12,5,.09,13.53-.09-.09,2.46.09,2.46h-14l-.33,3.15H99.84v3H87.69l.21,3.42Z"/><path d="M115.82,331.73a21.15,21.15,0,0,1-6.07-.8,18.75,18.75,0,0,1-5.29-2.44l1.23-5.16a15.9,15.9,0,0,0,4.93,2.5,19.31,19.31,0,0,0,5.84.89,8.19,8.19,0,0,0,3.42-.6c.85-.4,1.29-.9,1.29-1.5s-.33-.81-1-1.07a18.7,18.7,0,0,0-4.37-.58c-1.88-.12-3.29-.25-4.22-.39a13.78,13.78,0,0,1-2.46-.57,6.08,6.08,0,0,1-3-1.82,4.55,4.55,0,0,1-1-2.95,4.86,4.86,0,0,1,2.39-4.46q2.43-1.51,7.15-1.51a25.92,25.92,0,0,1,4.88.43,21.57,21.57,0,0,1,4.45,1.37L122.81,318a21.93,21.93,0,0,0-4.51-1.4,27,27,0,0,0-5.15-.46,10.69,10.69,0,0,0-3.5.49c-1,.33-1.42.77-1.42,1.31s.36.85,1.07,1.12a21.32,21.32,0,0,0,4.76.68c1.93.16,3.38.31,4.33.46a18.57,18.57,0,0,1,2.51.56,6.74,6.74,0,0,1,3.19,1.84,4.24,4.24,0,0,1,1,2.93,5.23,5.23,0,0,1-2.54,4.5A12.25,12.25,0,0,1,115.82,331.73Z"/><path d="M138.26,331.73a21.1,21.1,0,0,1-6.07-.8,18.75,18.75,0,0,1-5.29-2.44l1.22-5.16a16.07,16.07,0,0,0,4.94,2.5,19.26,19.26,0,0,0,5.84.89,8.18,8.18,0,0,0,3.41-.6q1.29-.6,1.29-1.5c0-.46-.32-.81-1-1.07a18.8,18.8,0,0,0-4.37-.58q-2.82-.18-4.23-.39a14,14,0,0,1-2.46-.57,6.09,6.09,0,0,1-2.95-1.82,4.62,4.62,0,0,1-1-2.95,4.89,4.89,0,0,1,2.4-4.46q2.43-1.51,7.14-1.51a26,26,0,0,1,4.89.43,21.3,21.3,0,0,1,4.44,1.37L145.25,318a22.12,22.12,0,0,0-4.51-1.4,27,27,0,0,0-5.15-.46,10.72,10.72,0,0,0-3.51.49c-.94.33-1.41.77-1.41,1.31s.36.85,1.07,1.12a21.2,21.2,0,0,0,4.75.68c1.94.16,3.39.31,4.34.46a18.4,18.4,0,0,1,2.5.56,6.77,6.77,0,0,1,3.2,1.84,4.18,4.18,0,0,1,1,2.93,5.2,5.2,0,0,1-2.53,4.5A12.28,12.28,0,0,1,138.26,331.73Z"/><path d="M153.32,331.16l-3.09.09,1.53-7.47-1.53-12,3.09.09,3.09-.09-1.53,12,1.53,7.5Z"/><path d="M160.91,323.75l-.9-12,5,.09,7-.09a13.85,13.85,0,0,1,6.68,1.17,4.32,4.32,0,0,1,1.18,6.6,5.3,5.3,0,0,1-3.15,1.38,6.35,6.35,0,0,1,3.92,1.36,4.3,4.3,0,0,1,1.3,3.35,4.59,4.59,0,0,1-2.49,4.26q-2.49,1.41-7.44,1.35l-7-.09-5,.09Zm16.71.75a1.35,1.35,0,0,0-.84-1.34,8.62,8.62,0,0,0-3.09-.37h-9.6l.42,3.57h9.18a7.8,7.8,0,0,0,3.05-.42A1.47,1.47,0,0,0,177.62,324.5Zm-.93-6.3a1.17,1.17,0,0,0-.79-1.19,9.44,9.44,0,0,0-3-.31H164.6l-.36,3.06h8.67a9,9,0,0,0,3-.33A1.22,1.22,0,0,0,176.69,318.2Z"/><path d="M187.67,331.16l-3.09.09,1.53-7.47-1.53-12,3.09.09,3.09-.09-1.53,12,1.53,7.5Z"/><path d="M212.75,326.18l-.09,2.52.09,2.55-13.41-.09-5,.09.93-7.5-.93-12,2.49.09,3.69-.09-2.28,14.58Z"/><path d="M218.54,331.16l-3.09.09,1.53-7.47-1.53-12,3.09.09,3.09-.09-1.53,12,1.53,7.5Z"/><path d="M226.16,323.75l-.93-12,5,.09,6-.09q5.28-.06,8.22,2.43a8.73,8.73,0,0,1,2.94,7.05,9.19,9.19,0,0,1-3.13,7.44q-3.14,2.64-8.78,2.55l-5.25-.09-5,.09Zm3.84-7-.57,9.51,0,.12h6.39a11.91,11.91,0,0,0,6.06-1.25,4,4,0,0,0,2.07-3.64,3.89,3.89,0,0,0-2-3.54,11.38,11.38,0,0,0-5.82-1.2Z"/><path d="M272.66,331.25h-6l-1.41-4.77h-9.57l-1.35,4.77h-6l10.29-19.47,1.83.12,1.77-.12Zm-12.3-14.49-3.42,6.69H264Z"/><path d="M275.54,323.75l-.93-12,4.95.09,6-.09q5.28-.06,8.22,2.43a8.73,8.73,0,0,1,2.94,7.05,9.19,9.19,0,0,1-3.13,7.44q-3.13,2.64-8.78,2.55l-5.25-.09-4.95.09Zm3.84-7-.57,9.51,0,.12h6.39a11.91,11.91,0,0,0,6.06-1.25,4,4,0,0,0,2.07-3.64,3.89,3.89,0,0,0-2-3.54,11.38,11.38,0,0,0-5.82-1.2Z"/><path d="M318.23,326.3l-.09,2.46.09,2.49-13.83-.09-5,.09.93-7.5-.93-12,5,.09,13.53-.09-.09,2.46.09,2.46H304l-.33,3.15h12.06v3H303.56l.21,3.42Z"/><rect class="cls-4" x="0.02" y="245" width="338" height="135" rx="8"/><path class="cls-3" d="M51.08,322.25h-6l-1.41-4.77H34.13l-1.35,4.77h-6L37.1,302.78l1.83.12,1.77-.12Zm-12.3-14.49-3.42,6.69h7Z"/><path class="cls-3" d="M63.73,317.75a21.59,21.59,0,0,0,4.85-.54,19.32,19.32,0,0,0,4.48-1.62l1.09,5a20.59,20.59,0,0,1-4.56,1.56,23.32,23.32,0,0,1-5,.54q-5.91,0-9.19-2.75a9.29,9.29,0,0,1-3.28-7.54,9,9,0,0,1,3.37-7.52q3.38-2.66,9.52-2.65a23.63,23.63,0,0,1,4.7.46,20.65,20.65,0,0,1,4.37,1.4l-1.29,4.95a17.39,17.39,0,0,0-4.07-1.49,20.19,20.19,0,0,0-4.54-.49,12.33,12.33,0,0,0-6.44,1.41,4.41,4.41,0,0,0-2.29,4,4.36,4.36,0,0,0,2.19,3.88A11.26,11.26,0,0,0,63.73,317.75Z"/><path class="cls-3" d="M95.36,317.3l-.09,2.46.09,2.49-13.83-.09-5,.09.93-7.5-.93-12,5,.09,13.53-.09L95,305.24l.09,2.46h-14l-.33,3.15H92.84v3H80.69l.21,3.42Z"/><path class="cls-3" d="M108.82,322.73a21.15,21.15,0,0,1-6.07-.8,18.75,18.75,0,0,1-5.29-2.44l1.23-5.16a15.9,15.9,0,0,0,4.93,2.5,19.31,19.31,0,0,0,5.84.89,8.19,8.19,0,0,0,3.42-.6c.85-.4,1.29-.9,1.29-1.5s-.33-.81-1-1.07a18.7,18.7,0,0,0-4.37-.58c-1.88-.12-3.29-.25-4.22-.39a13.78,13.78,0,0,1-2.46-.57,6.08,6.08,0,0,1-3-1.82,4.55,4.55,0,0,1-1-2.95,4.86,4.86,0,0,1,2.39-4.46q2.43-1.51,7.15-1.51a25.92,25.92,0,0,1,4.88.43,21.57,21.57,0,0,1,4.45,1.37L115.81,309a21.93,21.93,0,0,0-4.51-1.4,27,27,0,0,0-5.15-.46,10.69,10.69,0,0,0-3.5.49c-1,.33-1.42.77-1.42,1.31s.36.85,1.07,1.12a21.32,21.32,0,0,0,4.76.68c1.93.16,3.38.31,4.33.46a18.57,18.57,0,0,1,2.51.56,6.74,6.74,0,0,1,3.19,1.84,4.24,4.24,0,0,1,1,2.93,5.23,5.23,0,0,1-2.54,4.5A12.25,12.25,0,0,1,108.82,322.73Z"/><path class="cls-3" d="M131.26,322.73a21.1,21.1,0,0,1-6.07-.8,18.75,18.75,0,0,1-5.29-2.44l1.22-5.16a16.07,16.07,0,0,0,4.94,2.5,19.26,19.26,0,0,0,5.84.89,8.18,8.18,0,0,0,3.41-.6q1.29-.6,1.29-1.5c0-.46-.32-.81-1-1.07a18.8,18.8,0,0,0-4.37-.58q-2.82-.18-4.23-.39a14,14,0,0,1-2.46-.57,6.09,6.09,0,0,1-2.95-1.82,4.62,4.62,0,0,1-1-2.95,4.89,4.89,0,0,1,2.4-4.46q2.43-1.51,7.14-1.51a26,26,0,0,1,4.89.43,21.3,21.3,0,0,1,4.44,1.37L138.25,309a22.12,22.12,0,0,0-4.51-1.4,27,27,0,0,0-5.15-.46,10.72,10.72,0,0,0-3.51.49c-.94.33-1.41.77-1.41,1.31s.36.85,1.07,1.12a21.2,21.2,0,0,0,4.75.68c1.94.16,3.39.31,4.34.46a18.4,18.4,0,0,1,2.5.56,6.77,6.77,0,0,1,3.2,1.84,4.18,4.18,0,0,1,1,2.93,5.2,5.2,0,0,1-2.53,4.5A12.28,12.28,0,0,1,131.26,322.73Z"/><path class="cls-3" d="M146.32,322.16l-3.09.09,1.53-7.47-1.53-12,3.09.09,3.09-.09-1.53,12,1.53,7.5Z"/><path class="cls-3" d="M153.91,314.75l-.9-12,5,.09,7-.09a13.85,13.85,0,0,1,6.68,1.17,4.32,4.32,0,0,1,1.18,6.6,5.3,5.3,0,0,1-3.15,1.38,6.35,6.35,0,0,1,3.92,1.36,4.3,4.3,0,0,1,1.3,3.35,4.59,4.59,0,0,1-2.49,4.26q-2.49,1.41-7.44,1.35l-7-.09-5,.09Zm16.71.75a1.35,1.35,0,0,0-.84-1.34,8.62,8.62,0,0,0-3.09-.37h-9.6l.42,3.57h9.18a7.8,7.8,0,0,0,3.05-.42A1.47,1.47,0,0,0,170.62,315.5Zm-.93-6.3a1.17,1.17,0,0,0-.79-1.19,9.44,9.44,0,0,0-3-.31H157.6l-.36,3.06h8.67a9,9,0,0,0,3-.33A1.22,1.22,0,0,0,169.69,309.2Z"/><path class="cls-3" d="M180.67,322.16l-3.09.09,1.53-7.47-1.53-12,3.09.09,3.09-.09-1.53,12,1.53,7.5Z"/><path class="cls-3" d="M205.75,317.18l-.09,2.52.09,2.55-13.41-.09-5,.09.93-7.5-.93-12,2.49.09,3.69-.09-2.28,14.58Z"/><path class="cls-3" d="M211.54,322.16l-3.09.09,1.53-7.47-1.53-12,3.09.09,3.09-.09-1.53,12,1.53,7.5Z"/><path class="cls-3" d="M219.16,314.75l-.93-12,5,.09,6-.09q5.28-.06,8.22,2.43a8.73,8.73,0,0,1,2.94,7.05,9.19,9.19,0,0,1-3.13,7.44q-3.14,2.64-8.78,2.55l-5.25-.09-5,.09Zm3.84-7-.57,9.51,0,.12h6.39a11.91,11.91,0,0,0,6.06-1.25,4,4,0,0,0,2.07-3.64,3.89,3.89,0,0,0-2-3.54,11.38,11.38,0,0,0-5.82-1.2Z"/><path class="cls-3" d="M265.66,322.25h-6l-1.41-4.77h-9.57l-1.35,4.77h-6l10.29-19.47,1.83.12,1.77-.12Zm-12.3-14.49-3.42,6.69H257Z"/><path class="cls-3" d="M268.54,314.75l-.93-12,4.95.09,6-.09q5.28-.06,8.22,2.43a8.73,8.73,0,0,1,2.94,7.05,9.19,9.19,0,0,1-3.13,7.44q-3.13,2.64-8.78,2.55l-5.25-.09-4.95.09Zm3.84-7-.57,9.51,0,.12h6.39a11.91,11.91,0,0,0,6.06-1.25,4,4,0,0,0,2.07-3.64,3.89,3.89,0,0,0-2-3.54,11.38,11.38,0,0,0-5.82-1.2Z"/><path class="cls-3" d="M311.23,317.3l-.09,2.46.09,2.49-13.83-.09-5,.09.93-7.5-.93-12,5,.09,13.53-.09-.09,2.46.09,2.46H297l-.33,3.15h12.06v3H296.56l.21,3.42Z"/><rect x="373.02" y="254" width="206" height="309" rx="8"/><rect class="cls-1" x="366.02" y="245" width="206" height="309" rx="8"/><path d="M394,267.3q6,0,7.75,5.05a20.5,20.5,0,0,1,.86,5.23c0,.82.06,1.8.06,2.95v24.3a17.66,17.66,0,0,1-.8,4.92A20.65,20.65,0,0,1,399,315.6q2.16,1.9,2.77,6.15a31.19,31.19,0,0,1,.31,4V349.8H391.92V328.7a5.59,5.59,0,0,0-.55-2.58,2.92,2.92,0,0,0-1.23-1.23,3.28,3.28,0,0,0-1.79-.43h-1.72V349.8H376.29V267.3Zm-7.32,43.25h2.27a3.13,3.13,0,0,0,1.79-.43c1.19-.65,1.78-1.93,1.78-3.81V282.13c0-1.85-.59-3.12-1.78-3.82a3.21,3.21,0,0,0-1.79-.43h-2.27Z"/><path d="M416,277.64v25.78h10.27v10.33H416v25.72h10.27V349.8H405.7V267.3h20.61v10.34Z"/><path d="M443.29,266.07a14.07,14.07,0,0,1,14,13.9v18.77H446.74V278.81a3.35,3.35,0,0,0-1-2.47,3.5,3.5,0,0,0-2.46-1,3.3,3.3,0,0,0-2.4,1,3.38,3.38,0,0,0-1,2.47v20.36a3.66,3.66,0,0,0,.8,2.4,3,3,0,0,0,2.27,1h2a11.42,11.42,0,0,1,7.32,2.34,12.39,12.39,0,0,1,3.63,5.17,18.19,18.19,0,0,1,1.36,7.44v21.11a13.44,13.44,0,0,1-4.49,9,14.1,14.1,0,0,1-18.89,0,13.32,13.32,0,0,1-4.49-8.92v-20h10.52v19.87a3.36,3.36,0,0,0,3.38,3.39,3.47,3.47,0,0,0,2.46-1,3.24,3.24,0,0,0,1-2.4v-21q0-3.45-3.08-3.45H443a13,13,0,0,1-10-4.61,13.54,13.54,0,0,1-3.57-9.29V280a14,14,0,0,1,13.9-13.9Z"/><path d="M486.79,311.35c0,1.15,0,2.13-.06,2.95a20.31,20.31,0,0,1-.86,5.23q-1.72,5.06-7.76,5.05h-7.32V349.8H460.46V267.3h17.65q6,0,7.76,5.05a21,21,0,0,1,.86,5.23c0,.82.06,1.8.06,2.95Zm-10.15-29.22c0-1.85-.6-3.12-1.79-3.82a3.18,3.18,0,0,0-1.78-.43h-2.28V314h2.28a3.1,3.1,0,0,0,1.78-.43c1.19-.7,1.79-2,1.79-3.82Z"/><path d="M507.64,304.28v4.55H489.86v-4.55Z"/><path d="M390.2,358a14,14,0,0,1,14,13.9v57.46a14,14,0,0,1-23.81,9.85,13.57,13.57,0,0,1-4.06-9.85V371.85A13.86,13.86,0,0,1,390.2,358Zm-3.45,72.59a3.15,3.15,0,0,0,1.05,2.4,3.24,3.24,0,0,0,2.4,1,3.47,3.47,0,0,0,2.46-1,3.27,3.27,0,0,0,1-2.4V370.62a3.3,3.3,0,0,0-1-2.4,3.36,3.36,0,0,0-2.46-1,3.14,3.14,0,0,0-2.4,1,3.18,3.18,0,0,0-1.05,2.4Z"/><path d="M434.74,359.3v82.5H424.4l-6.83-35.37V441.8H407.24V359.3h10.33l6.83,38.08V359.3Z"/><path d="M451.72,358.07a14.09,14.09,0,0,1,14,13.9v18.77H455.17V370.81a3.35,3.35,0,0,0-1-2.47,3.5,3.5,0,0,0-2.46-1,3.3,3.3,0,0,0-2.4,1,3.34,3.34,0,0,0-1,2.47v20.36a3.66,3.66,0,0,0,.8,2.4,3,3,0,0,0,2.27,1h2a11.42,11.42,0,0,1,7.32,2.34,12.39,12.39,0,0,1,3.63,5.17,18.19,18.19,0,0,1,1.36,7.44v21.11a13.41,13.41,0,0,1-4.5,9,14.09,14.09,0,0,1-18.88,0,13.28,13.28,0,0,1-4.49-8.92v-20h10.52v19.87a3.23,3.23,0,0,0,1,2.4,3.27,3.27,0,0,0,2.4,1,3.47,3.47,0,0,0,2.46-1,3.24,3.24,0,0,0,1-2.4v-21q0-3.45-3.08-3.45h-.68a13,13,0,0,1-10-4.61,13.58,13.58,0,0,1-3.56-9.29V372a14,14,0,0,1,13.9-13.9Z"/><path d="M479.22,441.8H468.89V359.3h10.33Z"/><path d="M513.24,359.3l-10.33,82.5H492.63L482.3,359.3h10.33l5.11,41.28,5.17-41.28Z"/><path d="M386.63,533.8H376.29V451.3h10.34Z"/><path d="M416.41,520.58c0,1.14,0,2.13-.07,2.95a20,20,0,0,1-.86,5.23q-1.78,5-8.06,5H389.7V451.3h18q6.21,0,7.88,5.11a19,19,0,0,1,.8,5.23c0,.82.06,1.82.06,3ZM406,466.25a4,4,0,0,0-1.85-3.81,3.37,3.37,0,0,0-1.84-.43H400v61.21h2.22a3.37,3.37,0,0,0,1.84-.43A4,4,0,0,0,406,519Z"/><path d="M439,524.45h-7.93l-1.17,9.35H419.54l10.34-82.5h10.27l10.34,82.5H440.15Zm-1.29-10.27L435,492.52l-2.65,21.66Z"/><path d="M480.27,520.58c0,1.14,0,2.13-.06,2.95a19.92,19.92,0,0,1-.87,5.23q-1.79,5-8.06,5H453.57V451.3h18q6.21,0,7.88,5.11a19,19,0,0,1,.8,5.23c0,.82.06,1.82.06,3Zm-10.46-54.33a4,4,0,0,0-1.85-3.81,3.37,3.37,0,0,0-1.84-.43H463.9v61.21h2.22a3.37,3.37,0,0,0,1.84-.43,4,4,0,0,0,1.85-3.81Z"/><path d="M493.74,461.64v25.78H504v10.33H493.74v25.72H504V533.8H483.4V451.3H504v10.34Z"/><rect x="7.02" y="408.5" width="155" height="155" rx="8"/><path d="M112,498.72c-.27,1.48-.6,3.14-1,5a51.13,51.13,0,0,0-14.93.74c-5.86,1.27-8,5.25-8,11a4.33,4.33,0,0,0,.13,1.17c.44,10.56.49,21.13.5,31.7a38.74,38.74,0,0,1-6.92.59,32.4,32.4,0,0,1-7.15-.93,25.14,25.14,0,0,1-6.18-2.07,31.76,31.76,0,0,1-2.45-5.11,32.13,32.13,0,0,1-1.68-5.17,2,2,0,0,0-2.13,2.28,23.79,23.79,0,0,0,1.69,6.43q-5.72,4.56-16.27,4.57a40.22,40.22,0,0,1-8.81-.82q-4.89-1-7.18-3.21a153,153,0,0,1-8.76-23.72,219.78,219.78,0,0,1-7.07-36.83,16.12,16.12,0,0,1,6.69-5.58,22,22,0,0,1,9.46-2q7.85,0,12.33,3a9.66,9.66,0,0,1,4.48,8.54q-.37,4.14-.67,12.13t-.3,14.47a8.68,8.68,0,0,0,.35,2.8,1.44,1.44,0,0,0,1.5,1,4.21,4.21,0,0,0,1.09-.17,12.79,12.79,0,0,1-.06-1.62V515q0-7.89.55-18.2t1.3-15.37a21.77,21.77,0,0,1,11.64-3A26.22,26.22,0,0,1,75,480.23c3.27,1.52,5,3.75,5.17,6.69-.17,3.55-.52,7.05-1,10.49s-1.08,7.43-1.77,11.93-1.12,7.46-1.31,8.92a2.67,2.67,0,0,0,1.14.21,1.91,1.91,0,0,0,1.31-.54,5,5,0,0,0,1-2.61q1.7-8.72,2.77-18.36c.14-1.16.25-2.27.36-3.38,2.69,4.79,9.91,5.63,14.8,6.17A41.22,41.22,0,0,0,112,498.72Z"/><path d="M23.83,408.5v46.13q0,6,2.61,8.92c1.75,2,4.57,3.2,8.49,3.73a154.91,154.91,0,0,0,18.44.79q15.77,0,24.57-3.74c0-10.26.39-20.53.41-30.8a4,4,0,0,1,1.73-3.45,18.93,18.93,0,0,0-6.74-1.46,2.13,2.13,0,0,1,.65-1.79,3.13,3.13,0,0,1,1.91-.49,12.2,12.2,0,0,1,5.55,1.47,9.93,9.93,0,0,0,3.26-4.71,18.29,18.29,0,0,0,1.14-6.39A17.93,17.93,0,0,0,84,408.55Zm32.92,34.65a4.19,4.19,0,0,1-.55,2.5,1.84,1.84,0,0,1-1.57.71,2.91,2.91,0,0,1-1.26-.16v-6.7a5.08,5.08,0,0,0,0-.92,3.16,3.16,0,0,1,1.44-.22,1.6,1.6,0,0,1,1.53.87,6.7,6.7,0,0,1,.46,2.89Zm0-20.78A4.86,4.86,0,0,1,56.2,425a1.76,1.76,0,0,1-1.57.82,2.57,2.57,0,0,1-1.26-.17v-6.15a5.15,5.15,0,0,0,0-.92,3.31,3.31,0,0,1,1.44-.22,1.6,1.6,0,0,1,1.53.85,6.36,6.36,0,0,1,.46,2.8Z"/><path d="M140.4,469.2q-3.37,2.51-5.46,2.5c-1.4,0-2.1-.58-2.1-1.75a21.06,21.06,0,0,0,10.36-7.2,19.48,19.48,0,0,0,4.11-12.48q0-12.75-9.69-19.75-9.18-6.7-25.51-6.7a75,75,0,0,0-14.26,1.39,44.22,44.22,0,0,0-11.52,3.64c-2.94,1.51-4.42,3.06-4.42,4.66v51.68a9.56,9.56,0,0,0,4.2,8.38q4.19,2.88,11.2,2.88,9.8,0,16.06-4.41v-4.62l-3.11-7.83c-2.94-.19-4.4-.77-4.4-1.74a1.62,1.62,0,0,1,.43-1.2,43,43,0,0,0,5.77.59l2,5.34q2.73,7.62,8.23,11.1a18.2,18.2,0,0,0,10.11,2.77q7.72,0,12.11-4.56t5.36-13.07Zm-24.7-15.72a5,5,0,0,1-.54,2.66,1.78,1.78,0,0,1-1.57.81,2.73,2.73,0,0,1-1.26-.16V449a6.15,6.15,0,0,0,0-.92,3.13,3.13,0,0,1,1.44-.22,1.59,1.59,0,0,1,1.52.84,6.21,6.21,0,0,1,.46,2.8Z"/><path d="M151.25,563.66a19,19,0,0,0-3.32-11.26H132.64q-4.78,0-8.87.38a31.74,31.74,0,0,0-5.93,1.31,1.31,1.31,0,0,1-.75-1.19,1.46,1.46,0,0,1,.7-1.26,15.08,15.08,0,0,1,3.65-1.06,65.46,65.46,0,0,1,11.2-.62h11.81q2.4-3.65,2.39-10.13a22.24,22.24,0,0,0-.65-5,18.78,18.78,0,0,0-1.69-4.24h-26a.57.57,0,0,1-.12-.43v-.44c0-1,.68-1.58,2-1.58h21.93a7.17,7.17,0,0,0,6-2.77q2.15-2.77,2.15-8.27a23.08,23.08,0,0,0-.77-5.52,21,21,0,0,0-2.33-5.69H116q-12.52,0-18.51,1.2t-6,3.81v51.74c0,.27,0,.54,0,.81Z"/><rect class="cls-5" x="0.02" y="399.5" width="155" height="155" rx="8"/><path class="cls-3" d="M105,489.72c-.27,1.48-.6,3.14-1,5a51.13,51.13,0,0,0-14.93.74c-5.86,1.27-8,5.25-8,11a4.33,4.33,0,0,0,.13,1.17c.44,10.56.49,21.13.5,31.7a38.74,38.74,0,0,1-6.92.59,32.4,32.4,0,0,1-7.15-.93,25.14,25.14,0,0,1-6.18-2.07,31.76,31.76,0,0,1-2.45-5.11,32.13,32.13,0,0,1-1.68-5.17,2,2,0,0,0-2.13,2.28,23.79,23.79,0,0,0,1.69,6.43q-5.72,4.56-16.27,4.57a40.22,40.22,0,0,1-8.81-.82q-4.89-1-7.18-3.21a153,153,0,0,1-8.76-23.72,219.78,219.78,0,0,1-7.07-36.83,16.12,16.12,0,0,1,6.69-5.58,22,22,0,0,1,9.46-2q7.85,0,12.33,3a9.66,9.66,0,0,1,4.48,8.54q-.37,4.14-.67,12.13t-.3,14.47a8.68,8.68,0,0,0,.35,2.8,1.44,1.44,0,0,0,1.5,1,4.21,4.21,0,0,0,1.09-.17,12.79,12.79,0,0,1-.06-1.62V506q0-7.89.55-18.2t1.3-15.37a21.77,21.77,0,0,1,11.64-3A26.22,26.22,0,0,1,68,471.23c3.27,1.52,5,3.75,5.17,6.69-.17,3.55-.52,7.05-1,10.49s-1.08,7.43-1.77,11.93-1.12,7.46-1.31,8.92a2.67,2.67,0,0,0,1.14.21,1.91,1.91,0,0,0,1.31-.54,5,5,0,0,0,1-2.61q1.7-8.71,2.77-18.36c.14-1.16.25-2.27.36-3.38,2.69,4.79,9.91,5.63,14.8,6.17A41.22,41.22,0,0,0,105,489.72Z"/><path class="cls-3" d="M16.83,399.5v46.13q0,6,2.61,8.92c1.75,2,4.57,3.2,8.49,3.73a154.91,154.91,0,0,0,18.44.79q15.77,0,24.57-3.74c0-10.26.39-20.53.41-30.8a4,4,0,0,1,1.73-3.45,18.93,18.93,0,0,0-6.74-1.46,2.13,2.13,0,0,1,.65-1.79,3.13,3.13,0,0,1,1.91-.49,12.2,12.2,0,0,1,5.55,1.47,9.93,9.93,0,0,0,3.26-4.71,18.29,18.29,0,0,0,1.14-6.39A17.93,17.93,0,0,0,77,399.55Zm32.92,34.65a4.19,4.19,0,0,1-.55,2.5,1.84,1.84,0,0,1-1.57.71,2.91,2.91,0,0,1-1.26-.16v-6.7a5.08,5.08,0,0,0,0-.92,3.16,3.16,0,0,1,1.44-.22,1.6,1.6,0,0,1,1.53.87,6.7,6.7,0,0,1,.46,2.89Zm0-20.78A4.86,4.86,0,0,1,49.2,416a1.76,1.76,0,0,1-1.57.82,2.57,2.57,0,0,1-1.26-.17v-6.15a5.15,5.15,0,0,0,0-.92,3.31,3.31,0,0,1,1.44-.22,1.6,1.6,0,0,1,1.53.85,6.36,6.36,0,0,1,.46,2.8Z"/><path class="cls-3" d="M133.4,460.2q-3.37,2.51-5.46,2.5c-1.4,0-2.1-.58-2.1-1.75a21.06,21.06,0,0,0,10.36-7.2,19.48,19.48,0,0,0,4.11-12.48q0-12.75-9.69-19.75-9.18-6.7-25.51-6.7a75,75,0,0,0-14.26,1.39,44.22,44.22,0,0,0-11.52,3.64c-2.94,1.51-4.42,3.06-4.42,4.66v51.68a9.56,9.56,0,0,0,4.2,8.38q4.19,2.88,11.2,2.88,9.8,0,16.06-4.41v-4.62l-3.11-7.83c-2.94-.19-4.4-.77-4.4-1.74a1.62,1.62,0,0,1,.43-1.2,43,43,0,0,0,5.77.59l2,5.34q2.73,7.62,8.23,11.1a18.2,18.2,0,0,0,10.11,2.77q7.72,0,12.11-4.56t5.36-13.07Zm-24.7-15.72a5,5,0,0,1-.54,2.66,1.78,1.78,0,0,1-1.57.81,2.73,2.73,0,0,1-1.26-.16V440a6.15,6.15,0,0,0,0-.92,3.13,3.13,0,0,1,1.44-.22,1.59,1.59,0,0,1,1.52.84,6.21,6.21,0,0,1,.46,2.8Z"/><path class="cls-3" d="M144.25,554.66a19,19,0,0,0-3.32-11.26H125.64q-4.78,0-8.87.38a31.74,31.74,0,0,0-5.93,1.31,1.31,1.31,0,0,1-.75-1.19,1.46,1.46,0,0,1,.7-1.26,15.08,15.08,0,0,1,3.65-1.06,65.46,65.46,0,0,1,11.2-.62h11.81q2.4-3.65,2.39-10.13a22.24,22.24,0,0,0-.65-5,18.78,18.78,0,0,0-1.69-4.24h-26a.57.57,0,0,1-.12-.43v-.44c0-1,.68-1.58,2-1.58h21.93a7.17,7.17,0,0,0,6-2.77q2.15-2.77,2.15-8.27a23.08,23.08,0,0,0-.77-5.52,21,21,0,0,0-2.33-5.69H109q-12.52,0-18.51,1.2t-6,3.81v51.74c0,.27,0,.54,0,.81Z"/><rect x="190.02" y="408" width="155" height="155" rx="8"/><path d="M191.24,438l3.52-15.18h4a5.45,5.45,0,0,1,3.49,1,3.49,3.49,0,0,1,1.3,2.87,4.9,4.9,0,0,1-.66,2.53A4.55,4.55,0,0,1,201,431a6.72,6.72,0,0,1-3.07.65h-4.81l.09-.6H198a5.48,5.48,0,0,0,2.64-.59,4.09,4.09,0,0,0,2.23-3.74,3,3,0,0,0-1.1-2.44,4.67,4.67,0,0,0-3.06-.91h-3.47L191.89,438Z"/><path d="M206.05,438l3.52-15.18h9.92l-.17.58h-9.26l-1.5,6.57H216l-.14.58H208.4l-1.56,6.88h9.68l-.14.57Z"/><path d="M221,438l3.52-15.18h4.69a4.75,4.75,0,0,1,3.29,1,3.46,3.46,0,0,1,1.15,2.74,4.77,4.77,0,0,1-.59,2.38,4.23,4.23,0,0,1-1.71,1.67,5.85,5.85,0,0,1-2.78.65l-.23,0h-5.39l.07-.6h5.32a5.49,5.49,0,0,0,2.61-.55,3.71,3.71,0,0,0,1.53-1.48,4.38,4.38,0,0,0,.5-2.08,3,3,0,0,0-1-2.34,4.15,4.15,0,0,0-2.88-.88H225L221.62,438Zm10.28,0-2.74-7,.67,0,2.76,7Z"/><path d="M249.57,423.36h-9l-1.5,6.57h7.36l-.13.58h-7.39l-1.7,7.45h-.64l3.52-15.18h9.59Z"/><path d="M257.11,438.19a6.42,6.42,0,0,1-3.13-.77,5.56,5.56,0,0,1-2.25-2.26,7.45,7.45,0,0,1-.83-3.64,11.75,11.75,0,0,1,.48-3.38,9,9,0,0,1,1.45-2.86,7,7,0,0,1,2.42-2,7.26,7.26,0,0,1,3.33-.74,6.23,6.23,0,0,1,3.1.78,5.84,5.84,0,0,1,2.22,2.27,7.37,7.37,0,0,1,.82,3.62,11.66,11.66,0,0,1-.48,3.36,8.73,8.73,0,0,1-1.45,2.87,6.78,6.78,0,0,1-5.68,2.74Zm.05-.6a6.25,6.25,0,0,0,3-.69,6.45,6.45,0,0,0,2.16-1.86,8.27,8.27,0,0,0,1.31-2.68,11.15,11.15,0,0,0,.44-3.12,6.82,6.82,0,0,0-.75-3.32,5.16,5.16,0,0,0-2-2.07,5.58,5.58,0,0,0-2.81-.7,6.32,6.32,0,0,0-3,.69,6.62,6.62,0,0,0-2.18,1.86,8.14,8.14,0,0,0-1.32,2.67,10.81,10.81,0,0,0-.44,3.13,6.82,6.82,0,0,0,.75,3.32,5,5,0,0,0,2,2.07A5.73,5.73,0,0,0,257.16,437.59Z"/><path d="M268.13,438l3.52-15.18h4.69a4.77,4.77,0,0,1,3.29,1,3.5,3.5,0,0,1,1.15,2.74,4.77,4.77,0,0,1-.59,2.38,4.23,4.23,0,0,1-1.71,1.67,5.87,5.87,0,0,1-2.79.65l-.22,0h-5.39l.07-.6h5.32a5.49,5.49,0,0,0,2.61-.55,3.62,3.62,0,0,0,1.52-1.48,4.27,4.27,0,0,0,.51-2.08,3,3,0,0,0-1-2.34,4.11,4.11,0,0,0-2.87-.88h-4.12L268.77,438Zm10.28,0-2.74-7,.67,0,2.76,7Z"/><path d="M283.75,438l3.51-15.18h.88l2.3,13.16.16,1.29.69-1.22,8.46-13.23h1L297.2,438h-.62l2.94-12.67.44-1.77L290.78,438h-.64l-2.49-14.44h0l-.34,1.77L284.37,438Z"/><path d="M301.34,438l9.55-15.18h.82L314.22,438h-.64l-.88-5.22h-7.34L302.08,438Zm4.39-5.82h6.88l-1.45-8.65Z"/><path d="M318.36,438l3.52-15.18h.8l6,13.18.53,1.31.32-1.52,3-13h.62L329.63,438h-.81l-6-13.2-.53-1.29L322,425l-3,13Z"/><path d="M343.25,431.45l-.14.67h-6.67l.14-.67Z"/><path d="M198.28,465.79a6.55,6.55,0,0,1-3.15-.76,5.46,5.46,0,0,1-2.25-2.22,7.1,7.1,0,0,1-.83-3.6,11.87,11.87,0,0,1,.48-3.39,9.08,9.08,0,0,1,1.45-2.9,7,7,0,0,1,2.41-2,7.18,7.18,0,0,1,3.34-.75,6.21,6.21,0,0,1,2.49.48,5.27,5.27,0,0,1,1.92,1.41,5.8,5.8,0,0,1,1.2,2.27l-.64.19a5.14,5.14,0,0,0-1.85-2.81,5.27,5.27,0,0,0-3.17-1,6.21,6.21,0,0,0-3,.7,6.64,6.64,0,0,0-2.19,1.89,8.49,8.49,0,0,0-1.32,2.7,10.92,10.92,0,0,0-.44,3.08,6.76,6.76,0,0,0,.76,3.3,5.33,5.33,0,0,0,2,2.09,5.64,5.64,0,0,0,2.82.73,5.82,5.82,0,0,0,3.11-.79,5.66,5.66,0,0,0,2.08-2.2l.58.34a6.59,6.59,0,0,1-2.35,2.37A6.69,6.69,0,0,1,198.28,465.79Z"/><path d="M209.36,465.56l3.52-15.18h9.91l-.16.58h-9.27l-1.5,6.57h7.43l-.14.58H211.7L210.14,465h9.68l-.14.57Z"/><path d="M225.26,465.56l3.52-15.18H234a6.2,6.2,0,0,1,4,1.19,4,4,0,0,1,1.45,3.23,5.16,5.16,0,0,1-.79,2.83,5.38,5.38,0,0,1-2.19,1.94,7.51,7.51,0,0,1-3.37.7h-4.9l.55-2.51h4.44a3.32,3.32,0,0,0,1.7-.38,2.49,2.49,0,0,0,1-1,2.72,2.72,0,0,0,.35-1.35,2,2,0,0,0-.63-1.56,2.85,2.85,0,0,0-2-.58h-2.3l-2.94,12.67Z"/><path d="M243.08,465.56l3.52-15.18h11.29l-.6,2.55h-8.12l-.87,3.78h6.39l-.55,2.43h-6.39l-.88,3.87h8.4l-.6,2.55Z"/><path d="M260.46,465.56,264,450.38h5.95a5.2,5.2,0,0,1,3.53,1.13,3.9,3.9,0,0,1,1.3,3.13,4.77,4.77,0,0,1-.7,2.62,4.91,4.91,0,0,1-1.87,1.72,6.82,6.82,0,0,1-2.62.76l-1,.19h-4.05l.55-2.42h3.43a3.55,3.55,0,0,0,1.69-.36,2.48,2.48,0,0,0,1-1,2.74,2.74,0,0,0,.35-1.37,1.66,1.66,0,0,0-.66-1.44,3.06,3.06,0,0,0-1.77-.47h-2.65l-2.94,12.65Zm9.8,0L267.73,459l2.94-.44,2.83,7Z"/><path d="M292.6,452.93h-7.82l-.87,3.87h6.44l-.6,2.55h-6.44l-1.45,6.21h-3.17l3.52-15.18h11Z"/><path d="M302.78,465.79a7.1,7.1,0,0,1-3.32-.78,5.83,5.83,0,0,1-2.39-2.28,7,7,0,0,1-.89-3.61,11.22,11.22,0,0,1,.53-3.48,8.6,8.6,0,0,1,1.55-2.86,7.23,7.23,0,0,1,2.53-1.93,8.13,8.13,0,0,1,3.42-.7,7,7,0,0,1,3.32.78,5.81,5.81,0,0,1,2.36,2.28,7.07,7.07,0,0,1,.87,3.61,11.44,11.44,0,0,1-.51,3.46,8.56,8.56,0,0,1-1.55,2.87,7.28,7.28,0,0,1-2.51,1.94A7.93,7.93,0,0,1,302.78,465.79Zm.16-2.62a3.67,3.67,0,0,0,2-.56,4.71,4.71,0,0,0,1.43-1.51,7.62,7.62,0,0,0,.87-2.09,9.58,9.58,0,0,0,.28-2.3,4.89,4.89,0,0,0-.42-2.14,3.1,3.1,0,0,0-1.21-1.34,3.66,3.66,0,0,0-1.86-.46,3.59,3.59,0,0,0-2,.57,4.71,4.71,0,0,0-1.44,1.5,7.3,7.3,0,0,0-.89,2.1,9,9,0,0,0-.3,2.3,4.77,4.77,0,0,0,.44,2.12,3.11,3.11,0,0,0,1.23,1.35A3.63,3.63,0,0,0,302.94,463.17Z"/><path d="M315.12,465.56l3.52-15.18h6a5.21,5.21,0,0,1,3.53,1.13,3.9,3.9,0,0,1,1.3,3.13,4.77,4.77,0,0,1-.7,2.62,4.87,4.87,0,0,1-1.88,1.72,6.77,6.77,0,0,1-2.62.76l-1,.19h-4l.55-2.42h3.43a3.61,3.61,0,0,0,1.69-.36,2.46,2.46,0,0,0,1-1,2.64,2.64,0,0,0,.36-1.37,1.65,1.65,0,0,0-.67-1.44,3,3,0,0,0-1.77-.47H321.2l-2.95,12.65Zm9.8,0L322.39,459l2.95-.44,2.82,7Z"/><path d="M343.2,458.11l-.62,2.71h-8.12l.62-2.71Z"/><path d="M190.9,493.16,194.42,478h4.14l.87,8.12.25,3.66h0l1.84-3.64L206.1,478h4.67l-3.52,15.18H204.4l1.84-7.91,1.06-4.3h0l-7,12.21h-2.5L196.42,481h0l-.78,4.26-1.84,7.91Z"/><path d="M212.14,493.16l9-15.18H225l1.88,15.18h-3l-.44-3.84h-5.7l-2.16,3.84ZM219,487h4.26l-.67-6.35Z"/><path d="M231.76,493.16,235.28,478h3.49l3.11,9,.8,2.69h0l.57-2.9,2-8.79h2.85l-3.52,15.18h-3.45L238,484.24l-.81-2.67h0l-.53,2.81-2,8.78Z"/><path d="M258.92,493.39a7.34,7.34,0,0,1-3.41-.77,5.86,5.86,0,0,1-2.4-2.23,6.68,6.68,0,0,1-.89-3.53,11.4,11.4,0,0,1,.53-3.5,8.7,8.7,0,0,1,1.57-2.89,7.19,7.19,0,0,1,2.54-2,7.73,7.73,0,0,1,3.44-.73,7.4,7.4,0,0,1,2.88.53,5.09,5.09,0,0,1,2.08,1.58,5.93,5.93,0,0,1,1.15,2.58l-3.12.79a3.68,3.68,0,0,0-1-2.19,3,3,0,0,0-2.12-.69,3.68,3.68,0,0,0-2.08.59,4.89,4.89,0,0,0-1.47,1.53,7.6,7.6,0,0,0-.89,2.08,8.74,8.74,0,0,0-.3,2.24,4.71,4.71,0,0,0,.46,2.15,3.35,3.35,0,0,0,1.29,1.37,3.74,3.74,0,0,0,1.91.48,3.11,3.11,0,0,0,2.06-.62,5,5,0,0,0,1.25-1.63l2.9,1.17a7.77,7.77,0,0,1-2.52,2.69A7,7,0,0,1,258.92,493.39Z"/><path d="M269.7,493.16,273.22,478h11.29l-.6,2.55h-8.12l-.87,3.78h6.39l-.55,2.43h-6.39l-.88,3.87h8.4l-.6,2.55Z"/><path d="M287.15,493.16,290.67,478h4a5.45,5.45,0,0,1,3.49,1,3.49,3.49,0,0,1,1.3,2.87,4.9,4.9,0,0,1-.66,2.53,4.55,4.55,0,0,1-1.93,1.77,6.75,6.75,0,0,1-3.07.65H289l.09-.6h4.85a5.49,5.49,0,0,0,2.65-.59,4.09,4.09,0,0,0,2.23-3.74,3,3,0,0,0-1.1-2.44,4.67,4.67,0,0,0-3.06-.91h-3.47l-3.39,14.6Z"/><path d="M303,493.16,306.55,478h9.91l-.16.58H307l-1.5,6.57H313l-.14.58h-7.45l-1.56,6.88h9.68l-.14.57Z"/><path d="M319,493.16,322.54,478h4.69a4.75,4.75,0,0,1,3.29,1,3.46,3.46,0,0,1,1.15,2.74,4.77,4.77,0,0,1-.59,2.38,4.23,4.23,0,0,1-1.71,1.67,5.85,5.85,0,0,1-2.78.65l-.23,0H321l.07-.6h5.32a5.49,5.49,0,0,0,2.61-.55,3.71,3.71,0,0,0,1.53-1.48,4.38,4.38,0,0,0,.5-2.08,3,3,0,0,0-1-2.34,4.15,4.15,0,0,0-2.88-.88H323l-3.38,14.6Zm10.28,0-2.74-7,.67,0,2.76,7Z"/><path d="M343.24,486.65l-.13.67h-6.67l.13-.67Z"/><path d="M204.21,506.16h-9l-1.49,6.57h7.36l-.14.58h-7.38l-1.7,7.45h-.65l3.52-15.18h9.59Z"/><path d="M213.46,521a6.53,6.53,0,0,1-3.13-.77,5.56,5.56,0,0,1-2.25-2.26,7.45,7.45,0,0,1-.83-3.64,11.75,11.75,0,0,1,.48-3.38,9,9,0,0,1,1.45-2.86,7,7,0,0,1,2.42-2,7.26,7.26,0,0,1,3.33-.74,6.23,6.23,0,0,1,3.1.78,5.84,5.84,0,0,1,2.22,2.27,7.37,7.37,0,0,1,.82,3.62,11.66,11.66,0,0,1-.48,3.36,8.73,8.73,0,0,1-1.45,2.87,6.9,6.9,0,0,1-2.38,2A7,7,0,0,1,213.46,521Zm0-.6a6.25,6.25,0,0,0,3-.69,6.45,6.45,0,0,0,2.16-1.86,8.27,8.27,0,0,0,1.31-2.68,11.15,11.15,0,0,0,.44-3.12,6.82,6.82,0,0,0-.75-3.32,5.16,5.16,0,0,0-2-2.07,5.58,5.58,0,0,0-2.81-.7,6.32,6.32,0,0,0-3,.69,6.62,6.62,0,0,0-2.18,1.86,8.14,8.14,0,0,0-1.32,2.67,10.81,10.81,0,0,0-.44,3.13,6.82,6.82,0,0,0,.75,3.32,5,5,0,0,0,2,2.07A5.73,5.73,0,0,0,213.51,520.39Z"/><path d="M226.18,520.76l3.52-15.18h4.69a4.78,4.78,0,0,1,3.29,1,3.5,3.5,0,0,1,1.15,2.75,4.77,4.77,0,0,1-.58,2.38,4.26,4.26,0,0,1-1.72,1.67,6,6,0,0,1-2.78.65l-.23,0h-5.38l.07-.6h5.31a5.43,5.43,0,0,0,2.61-.55,3.71,3.71,0,0,0,1.53-1.48,4.27,4.27,0,0,0,.51-2.08,3,3,0,0,0-1-2.34,4.11,4.11,0,0,0-2.87-.88h-4.12l-3.38,14.6Zm10.28,0-2.73-7,.66,0,2.76,7Z"/><path d="M243.51,520.76,247,505.58h.88l2.3,13.16.16,1.28.69-1.21,8.46-13.23h1L257,520.76h-.62l2.94-12.67.44-1.77-9.18,14.44h-.64l-2.49-14.44h0l-.34,1.77-2.92,12.67Z"/><path d="M262.81,520.76l9.54-15.18h.83l2.51,15.18H275l-.87-5.22h-7.34l-3.29,5.22Zm4.39-5.82h6.88l-1.45-8.65Z"/><path d="M281.53,520.76l3.52-15.18h.8l6,13.18.53,1.31.32-1.52,3-13h.62l-3.52,15.18H292l-6-13.2-.53-1.29-.3,1.52-3,13Z"/><path d="M307.61,521a6.55,6.55,0,0,1-3.15-.76,5.46,5.46,0,0,1-2.25-2.22,7.21,7.21,0,0,1-.83-3.6,11.87,11.87,0,0,1,.48-3.39,9.08,9.08,0,0,1,1.45-2.9,7,7,0,0,1,5.75-2.77,6.3,6.3,0,0,1,2.5.48,5.44,5.44,0,0,1,1.92,1.41,5.92,5.92,0,0,1,1.19,2.27l-.64.19a5.09,5.09,0,0,0-1.85-2.81,5.24,5.24,0,0,0-3.16-1,6.28,6.28,0,0,0-3,.7,6.71,6.71,0,0,0-2.18,1.89,8.73,8.73,0,0,0-1.33,2.7,10.91,10.91,0,0,0-.43,3.08,6.65,6.65,0,0,0,.76,3.3,5.24,5.24,0,0,0,2,2.09,5.64,5.64,0,0,0,2.82.73,5.88,5.88,0,0,0,3.12-.79,5.73,5.73,0,0,0,2.08-2.2l.57.34a6.65,6.65,0,0,1-2.34,2.37A6.75,6.75,0,0,1,307.61,521Z"/><path d="M319.07,520.76l3.52-15.18h9.91l-.16.58h-9.27l-1.49,6.57H329l-.14.58h-7.45l-1.57,6.88h9.69l-.14.57Z"/><path d="M343.25,514.25l-.14.67h-6.67l.14-.67Z"/><path d="M191.24,548.36l3.52-15.18h4a5.45,5.45,0,0,1,3.49,1,3.47,3.47,0,0,1,1.3,2.87,4.9,4.9,0,0,1-.66,2.53,4.55,4.55,0,0,1-1.93,1.77,6.72,6.72,0,0,1-3.07.65h-4.81l.09-.6H198a5.48,5.48,0,0,0,2.64-.59,4.09,4.09,0,0,0,2.23-3.74,3,3,0,0,0-1.1-2.45,4.73,4.73,0,0,0-3.06-.9h-3.47l-3.38,14.6Z"/><path d="M206.05,548.36l3.52-15.18h9.92l-.17.58h-9.26l-1.5,6.57H216l-.14.58H208.4l-1.56,6.88h9.68l-.14.57Z"/><path d="M221,548.36l3.52-15.18h4.69a4.8,4.8,0,0,1,3.29,1,3.5,3.5,0,0,1,1.15,2.75,4.77,4.77,0,0,1-.59,2.38,4.23,4.23,0,0,1-1.71,1.67,6,6,0,0,1-2.78.65l-.23,0h-5.39l.07-.6h5.32a5.49,5.49,0,0,0,2.61-.55,3.71,3.71,0,0,0,1.53-1.48A4.38,4.38,0,0,0,233,537a3,3,0,0,0-1-2.34,4.15,4.15,0,0,0-2.88-.88H225l-3.38,14.6Zm10.28,0-2.74-7,.67,0,2.76,7Z"/><path d="M249.57,533.76h-9l-1.5,6.57h7.36l-.13.58h-7.39l-1.7,7.45h-.64l3.52-15.18h9.59Z"/><path d="M257.11,548.59a6.53,6.53,0,0,1-3.13-.77,5.56,5.56,0,0,1-2.25-2.26,7.45,7.45,0,0,1-.83-3.64,11.75,11.75,0,0,1,.48-3.38,9,9,0,0,1,1.45-2.86,7,7,0,0,1,2.42-2,7.26,7.26,0,0,1,3.33-.74,6.23,6.23,0,0,1,3.1.78A5.84,5.84,0,0,1,263.9,536a7.34,7.34,0,0,1,.82,3.62,11.66,11.66,0,0,1-.48,3.36,8.73,8.73,0,0,1-1.45,2.87,6.85,6.85,0,0,1-5.68,2.74Zm.05-.6a6.25,6.25,0,0,0,3-.69,6.45,6.45,0,0,0,2.16-1.86,8.27,8.27,0,0,0,1.31-2.68,11.15,11.15,0,0,0,.44-3.12,6.82,6.82,0,0,0-.75-3.32,5.16,5.16,0,0,0-2-2.07,5.58,5.58,0,0,0-2.81-.7,6.32,6.32,0,0,0-3,.69,6.62,6.62,0,0,0-2.18,1.86,8.14,8.14,0,0,0-1.32,2.67,10.81,10.81,0,0,0-.44,3.13,6.82,6.82,0,0,0,.75,3.32,5,5,0,0,0,2,2.07A5.73,5.73,0,0,0,257.16,548Z"/><path d="M268.13,548.36l3.52-15.18h4.69a4.82,4.82,0,0,1,3.29,1,3.53,3.53,0,0,1,1.15,2.75,4.77,4.77,0,0,1-.59,2.38,4.23,4.23,0,0,1-1.71,1.67,6,6,0,0,1-2.79.65l-.22,0h-5.39l.07-.6h5.32a5.49,5.49,0,0,0,2.61-.55,3.62,3.62,0,0,0,1.52-1.48,4.27,4.27,0,0,0,.51-2.08,3,3,0,0,0-1-2.34,4.11,4.11,0,0,0-2.87-.88h-4.12l-3.38,14.6Zm10.28,0-2.74-7,.67,0,2.76,7Z"/><path d="M283.75,548.36l3.51-15.18h.88l2.3,13.16.16,1.28.69-1.21,8.46-13.23h1l-3.52,15.18h-.62l2.94-12.67.44-1.77-9.18,14.44h-.64l-2.49-14.44h0l-.34,1.77-2.92,12.67Z"/><path d="M301.34,548.36l9.55-15.18h.82l2.51,15.18h-.64l-.88-5.22h-7.34l-3.28,5.22Zm4.39-5.82h6.88l-1.45-8.65Z"/><path d="M318.36,548.36l3.52-15.18h.8l6,13.18.53,1.31.32-1.52,3-13h.62l-3.52,15.18h-.81l-6-13.2-.53-1.29-.3,1.52-3,13Z"/><path d="M343.25,541.85l-.14.67h-6.67l.14-.67Z"/><rect class="cls-6" x="183.02" y="399" width="155" height="155" rx="8"/><path d="M184.24,429l3.52-15.18h4a5.45,5.45,0,0,1,3.49,1,3.49,3.49,0,0,1,1.3,2.87,4.9,4.9,0,0,1-.66,2.53A4.55,4.55,0,0,1,194,422a6.72,6.72,0,0,1-3.07.65h-4.81l.09-.6H191a5.48,5.48,0,0,0,2.64-.59,4.09,4.09,0,0,0,2.23-3.74,3,3,0,0,0-1.1-2.44,4.67,4.67,0,0,0-3.06-.91h-3.47L184.89,429Z"/><path d="M199.05,429l3.52-15.18h9.92l-.17.58h-9.26l-1.5,6.57H209l-.14.58H201.4l-1.56,6.88h9.68l-.14.57Z"/><path d="M214,429l3.52-15.18h4.69a4.75,4.75,0,0,1,3.29,1,3.46,3.46,0,0,1,1.15,2.74,4.77,4.77,0,0,1-.59,2.38,4.23,4.23,0,0,1-1.71,1.67,5.85,5.85,0,0,1-2.78.65l-.23,0h-5.39l.07-.6h5.32a5.49,5.49,0,0,0,2.61-.55,3.71,3.71,0,0,0,1.53-1.48,4.38,4.38,0,0,0,.5-2.08,3,3,0,0,0-1-2.34,4.15,4.15,0,0,0-2.88-.88H218L214.62,429Zm10.28,0-2.74-7,.67,0,2.76,7Z"/><path d="M242.57,414.36h-9l-1.5,6.57h7.36l-.13.58h-7.39l-1.7,7.45h-.64l3.52-15.18h9.59Z"/><path d="M250.11,429.19a6.42,6.42,0,0,1-3.13-.77,5.56,5.56,0,0,1-2.25-2.26,7.45,7.45,0,0,1-.83-3.64,11.75,11.75,0,0,1,.48-3.38,9,9,0,0,1,1.45-2.86,7,7,0,0,1,2.42-2,7.26,7.26,0,0,1,3.33-.74,6.23,6.23,0,0,1,3.1.78,5.84,5.84,0,0,1,2.22,2.27,7.37,7.37,0,0,1,.82,3.62,11.66,11.66,0,0,1-.48,3.36,8.73,8.73,0,0,1-1.45,2.87,6.78,6.78,0,0,1-5.68,2.74Zm0-.6a6.25,6.25,0,0,0,3-.69,6.45,6.45,0,0,0,2.16-1.86,8.27,8.27,0,0,0,1.31-2.68,11.15,11.15,0,0,0,.44-3.12,6.82,6.82,0,0,0-.75-3.32,5.16,5.16,0,0,0-2-2.07,5.58,5.58,0,0,0-2.81-.7,6.32,6.32,0,0,0-3,.69,6.62,6.62,0,0,0-2.18,1.86,8.14,8.14,0,0,0-1.32,2.67,10.81,10.81,0,0,0-.44,3.13,6.82,6.82,0,0,0,.75,3.32,5,5,0,0,0,2,2.07A5.73,5.73,0,0,0,250.16,428.59Z"/><path d="M261.13,429l3.52-15.18h4.69a4.77,4.77,0,0,1,3.29,1,3.5,3.5,0,0,1,1.15,2.74,4.77,4.77,0,0,1-.59,2.38,4.23,4.23,0,0,1-1.71,1.67,5.87,5.87,0,0,1-2.79.65l-.22,0h-5.39l.07-.6h5.32a5.49,5.49,0,0,0,2.61-.55,3.62,3.62,0,0,0,1.52-1.48,4.27,4.27,0,0,0,.51-2.08,3,3,0,0,0-1-2.34,4.11,4.11,0,0,0-2.87-.88h-4.12L261.77,429Zm10.28,0-2.74-7,.67,0,2.76,7Z"/><path d="M276.75,429l3.51-15.18h.88l2.3,13.16.16,1.29.69-1.22,8.46-13.23h1L290.2,429h-.62l2.94-12.67.44-1.77L283.78,429h-.64l-2.49-14.44h0l-.34,1.77L277.37,429Z"/><path d="M294.34,429l9.55-15.18h.82L307.22,429h-.64l-.88-5.22h-7.34L295.08,429Zm4.39-5.82h6.88l-1.45-8.65Z"/><path d="M311.36,429l3.52-15.18h.8l6,13.18.53,1.31.32-1.52,3-13h.62L322.63,429h-.81l-6-13.2-.53-1.29L315,416l-3,13Z"/><path d="M336.25,422.45l-.14.67h-6.67l.14-.67Z"/><path d="M191.28,456.79a6.55,6.55,0,0,1-3.15-.76,5.46,5.46,0,0,1-2.25-2.22,7.1,7.1,0,0,1-.83-3.6,11.87,11.87,0,0,1,.48-3.39,9.08,9.08,0,0,1,1.45-2.9,7,7,0,0,1,2.41-2,7.18,7.18,0,0,1,3.34-.75,6.21,6.21,0,0,1,2.49.48,5.27,5.27,0,0,1,1.92,1.41,5.8,5.8,0,0,1,1.2,2.27l-.64.19a5.14,5.14,0,0,0-1.85-2.81,5.27,5.27,0,0,0-3.17-1,6.21,6.21,0,0,0-3,.7,6.64,6.64,0,0,0-2.19,1.89,8.49,8.49,0,0,0-1.32,2.7,10.92,10.92,0,0,0-.44,3.08,6.76,6.76,0,0,0,.76,3.3,5.33,5.33,0,0,0,2,2.09,5.64,5.64,0,0,0,2.82.73,5.82,5.82,0,0,0,3.11-.79,5.66,5.66,0,0,0,2.08-2.2l.58.34a6.59,6.59,0,0,1-2.35,2.37A6.69,6.69,0,0,1,191.28,456.79Z"/><path d="M202.36,456.56l3.52-15.18h9.91l-.16.58h-9.27l-1.5,6.57h7.43l-.14.58H204.7L203.14,456h9.68l-.14.57Z"/><path d="M218.26,456.56l3.52-15.18H227a6.2,6.2,0,0,1,4,1.19,4,4,0,0,1,1.45,3.23,5.16,5.16,0,0,1-.79,2.83,5.38,5.38,0,0,1-2.19,1.94,7.51,7.51,0,0,1-3.37.7h-4.9l.55-2.51h4.44a3.32,3.32,0,0,0,1.7-.38,2.49,2.49,0,0,0,1-1,2.72,2.72,0,0,0,.35-1.35,2,2,0,0,0-.63-1.56,2.85,2.85,0,0,0-2-.58h-2.3l-2.94,12.67Z"/><path d="M236.08,456.56l3.52-15.18h11.29l-.6,2.55h-8.12l-.87,3.78h6.39l-.55,2.43h-6.39l-.88,3.87h8.4l-.6,2.55Z"/><path d="M253.46,456.56,257,441.38h5.95a5.2,5.2,0,0,1,3.53,1.13,3.9,3.9,0,0,1,1.3,3.13,4.77,4.77,0,0,1-.7,2.62,4.91,4.91,0,0,1-1.87,1.72,6.82,6.82,0,0,1-2.62.76l-1,.19h-4.05l.55-2.42h3.43a3.55,3.55,0,0,0,1.69-.36,2.48,2.48,0,0,0,1-1,2.74,2.74,0,0,0,.35-1.37,1.66,1.66,0,0,0-.66-1.44,3.06,3.06,0,0,0-1.77-.47h-2.65l-2.94,12.65Zm9.8,0L260.73,450l2.94-.44,2.83,7Z"/><path d="M285.6,443.93h-7.82l-.87,3.87h6.44l-.6,2.55h-6.44l-1.45,6.21h-3.17l3.52-15.18h11Z"/><path d="M295.78,456.79a7.1,7.1,0,0,1-3.32-.78,5.83,5.83,0,0,1-2.39-2.28,7,7,0,0,1-.89-3.61,11.22,11.22,0,0,1,.53-3.48,8.6,8.6,0,0,1,1.55-2.86,7.23,7.23,0,0,1,2.53-1.93,8.13,8.13,0,0,1,3.42-.7,7,7,0,0,1,3.32.78,5.81,5.81,0,0,1,2.36,2.28,7.07,7.07,0,0,1,.87,3.61,11.44,11.44,0,0,1-.51,3.46,8.56,8.56,0,0,1-1.55,2.87,7.28,7.28,0,0,1-2.51,1.94A7.93,7.93,0,0,1,295.78,456.79Zm.16-2.62a3.67,3.67,0,0,0,2-.56,4.71,4.71,0,0,0,1.43-1.51,7.62,7.62,0,0,0,.87-2.09,9.58,9.58,0,0,0,.28-2.3,4.89,4.89,0,0,0-.42-2.14,3.1,3.1,0,0,0-1.21-1.34,3.66,3.66,0,0,0-1.86-.46,3.59,3.59,0,0,0-2,.57,4.71,4.71,0,0,0-1.44,1.5,7.3,7.3,0,0,0-.89,2.1,9,9,0,0,0-.3,2.3,4.77,4.77,0,0,0,.44,2.12,3.11,3.11,0,0,0,1.23,1.35A3.63,3.63,0,0,0,295.94,454.17Z"/><path d="M308.12,456.56l3.52-15.18h6a5.21,5.21,0,0,1,3.53,1.13,3.9,3.9,0,0,1,1.3,3.13,4.77,4.77,0,0,1-.7,2.62,4.87,4.87,0,0,1-1.88,1.72,6.77,6.77,0,0,1-2.62.76l-1,.19h-4l.55-2.42h3.43a3.61,3.61,0,0,0,1.69-.36,2.46,2.46,0,0,0,1-1,2.64,2.64,0,0,0,.36-1.37,1.65,1.65,0,0,0-.67-1.44,3,3,0,0,0-1.77-.47H314.2l-2.95,12.65Zm9.8,0L315.39,450l2.95-.44,2.82,7Z"/><path d="M336.2,449.11l-.62,2.71h-8.12l.62-2.71Z"/><path d="M183.9,484.16,187.42,469h4.14l.87,8.12.25,3.66h0l1.84-3.64L199.1,469h4.67l-3.52,15.18H197.4l1.84-7.91,1.06-4.3h0l-7,12.21h-2.5L189.42,472h0l-.78,4.26-1.84,7.91Z"/><path d="M205.14,484.16l9-15.18H218l1.88,15.18h-3l-.44-3.84h-5.7l-2.16,3.84ZM212,478h4.26l-.67-6.35Z"/><path d="M224.76,484.16,228.28,469h3.49l3.11,9,.8,2.69h0l.57-2.9,2-8.79h2.85l-3.52,15.18h-3.45L231,475.24l-.81-2.67h0l-.53,2.81-2,8.78Z"/><path d="M251.92,484.39a7.34,7.34,0,0,1-3.41-.77,5.86,5.86,0,0,1-2.4-2.23,6.68,6.68,0,0,1-.89-3.53,11.4,11.4,0,0,1,.53-3.5,8.7,8.7,0,0,1,1.57-2.89,7.19,7.19,0,0,1,2.54-2,7.73,7.73,0,0,1,3.44-.73,7.4,7.4,0,0,1,2.88.53,5.09,5.09,0,0,1,2.08,1.58,5.93,5.93,0,0,1,1.15,2.58l-3.12.79a3.68,3.68,0,0,0-1-2.19,3,3,0,0,0-2.12-.69,3.68,3.68,0,0,0-2.08.59,4.89,4.89,0,0,0-1.47,1.53,7.6,7.6,0,0,0-.89,2.08,8.74,8.74,0,0,0-.3,2.24,4.71,4.71,0,0,0,.46,2.15,3.35,3.35,0,0,0,1.29,1.37,3.74,3.74,0,0,0,1.91.48,3.11,3.11,0,0,0,2.06-.62,5,5,0,0,0,1.25-1.63l2.9,1.17a7.77,7.77,0,0,1-2.52,2.69A7,7,0,0,1,251.92,484.39Z"/><path d="M262.7,484.16,266.22,469h11.29l-.6,2.55h-8.12l-.87,3.78h6.39l-.55,2.43h-6.39l-.88,3.87h8.4l-.6,2.55Z"/><path d="M280.15,484.16,283.67,469h4a5.45,5.45,0,0,1,3.49,1,3.49,3.49,0,0,1,1.3,2.87,4.9,4.9,0,0,1-.66,2.53,4.55,4.55,0,0,1-1.93,1.77,6.75,6.75,0,0,1-3.07.65H282l.09-.6h4.85a5.49,5.49,0,0,0,2.65-.59,4.09,4.09,0,0,0,2.23-3.74,3,3,0,0,0-1.1-2.44,4.67,4.67,0,0,0-3.06-.91h-3.47l-3.39,14.6Z"/><path d="M296,484.16,299.55,469h9.91l-.16.58H300l-1.5,6.57H306l-.14.58h-7.45l-1.56,6.88h9.68l-.14.57Z"/><path d="M312,484.16,315.54,469h4.69a4.75,4.75,0,0,1,3.29,1,3.46,3.46,0,0,1,1.15,2.74,4.77,4.77,0,0,1-.59,2.38,4.23,4.23,0,0,1-1.71,1.67,5.85,5.85,0,0,1-2.78.65l-.23,0H314l.07-.6h5.32a5.49,5.49,0,0,0,2.61-.55,3.71,3.71,0,0,0,1.53-1.48,4.38,4.38,0,0,0,.5-2.08,3,3,0,0,0-1-2.34,4.15,4.15,0,0,0-2.88-.88H316l-3.38,14.6Zm10.28,0-2.74-7,.67,0,2.76,7Z"/><path d="M336.24,477.65l-.13.67h-6.67l.13-.67Z"/><path d="M197.21,497.16h-9l-1.49,6.57h7.36l-.14.58h-7.38l-1.7,7.45h-.65l3.52-15.18h9.59Z"/><path d="M206.46,512a6.53,6.53,0,0,1-3.13-.77,5.56,5.56,0,0,1-2.25-2.26,7.45,7.45,0,0,1-.83-3.64,11.75,11.75,0,0,1,.48-3.38,9,9,0,0,1,1.45-2.86,7,7,0,0,1,2.42-2,7.26,7.26,0,0,1,3.33-.74,6.23,6.23,0,0,1,3.1.78,5.84,5.84,0,0,1,2.22,2.27,7.37,7.37,0,0,1,.82,3.62,11.66,11.66,0,0,1-.48,3.36,8.73,8.73,0,0,1-1.45,2.87,6.9,6.9,0,0,1-2.38,2A7,7,0,0,1,206.46,512Zm0-.6a6.25,6.25,0,0,0,3-.69,6.45,6.45,0,0,0,2.16-1.86,8.27,8.27,0,0,0,1.31-2.68,11.15,11.15,0,0,0,.44-3.12,6.82,6.82,0,0,0-.75-3.32,5.16,5.16,0,0,0-2-2.07,5.58,5.58,0,0,0-2.81-.7,6.32,6.32,0,0,0-3,.69,6.62,6.62,0,0,0-2.18,1.86,8.14,8.14,0,0,0-1.32,2.67,10.81,10.81,0,0,0-.44,3.13,6.82,6.82,0,0,0,.75,3.32,5,5,0,0,0,2,2.07A5.73,5.73,0,0,0,206.51,511.39Z"/><path d="M219.18,511.76l3.52-15.18h4.69a4.78,4.78,0,0,1,3.29,1,3.5,3.5,0,0,1,1.15,2.75,4.77,4.77,0,0,1-.58,2.38,4.26,4.26,0,0,1-1.72,1.67,6,6,0,0,1-2.78.65l-.23,0h-5.38l.07-.6h5.31a5.43,5.43,0,0,0,2.61-.55,3.71,3.71,0,0,0,1.53-1.48,4.27,4.27,0,0,0,.51-2.08,3,3,0,0,0-1-2.34,4.11,4.11,0,0,0-2.87-.88h-4.12l-3.38,14.6Zm10.28,0-2.73-7,.66,0,2.76,7Z"/><path d="M236.51,511.76,240,496.58h.88l2.3,13.16.16,1.28.69-1.21,8.46-13.23h1L250,511.76h-.62l2.94-12.67.44-1.77-9.18,14.44h-.64l-2.49-14.44h0l-.34,1.77-2.92,12.67Z"/><path d="M255.81,511.76l9.54-15.18h.83l2.51,15.18H268l-.87-5.22h-7.34l-3.29,5.22Zm4.39-5.82h6.88l-1.45-8.65Z"/><path d="M274.53,511.76l3.52-15.18h.8l6,13.18.53,1.31.32-1.52,3-13h.62l-3.52,15.18H285l-6-13.2-.53-1.29-.3,1.52-3,13Z"/><path d="M300.61,512a6.55,6.55,0,0,1-3.15-.76,5.46,5.46,0,0,1-2.25-2.22,7.21,7.21,0,0,1-.83-3.6,11.87,11.87,0,0,1,.48-3.39,9.08,9.08,0,0,1,1.45-2.9,7,7,0,0,1,5.75-2.77,6.3,6.3,0,0,1,2.5.48,5.44,5.44,0,0,1,1.92,1.41,5.92,5.92,0,0,1,1.19,2.27l-.64.19a5.09,5.09,0,0,0-1.85-2.81,5.24,5.24,0,0,0-3.16-1,6.28,6.28,0,0,0-3,.7,6.71,6.71,0,0,0-2.18,1.89,8.73,8.73,0,0,0-1.33,2.7,10.91,10.91,0,0,0-.43,3.08,6.65,6.65,0,0,0,.76,3.3,5.24,5.24,0,0,0,2,2.09,5.64,5.64,0,0,0,2.82.73,5.88,5.88,0,0,0,3.12-.79,5.73,5.73,0,0,0,2.08-2.2l.57.34a6.65,6.65,0,0,1-2.34,2.37A6.75,6.75,0,0,1,300.61,512Z"/><path d="M312.07,511.76l3.52-15.18h9.91l-.16.58h-9.27l-1.49,6.57H322l-.14.58h-7.45l-1.57,6.88h9.69l-.14.57Z"/><path d="M336.25,505.25l-.14.67h-6.67l.14-.67Z"/><path d="M184.24,539.36l3.52-15.18h4a5.45,5.45,0,0,1,3.49,1,3.47,3.47,0,0,1,1.3,2.87,4.9,4.9,0,0,1-.66,2.53,4.55,4.55,0,0,1-1.93,1.77,6.72,6.72,0,0,1-3.07.65h-4.81l.09-.6H191a5.48,5.48,0,0,0,2.64-.59,4.09,4.09,0,0,0,2.23-3.74,3,3,0,0,0-1.1-2.45,4.73,4.73,0,0,0-3.06-.9h-3.47l-3.38,14.6Z"/><path d="M199.05,539.36l3.52-15.18h9.92l-.17.58h-9.26l-1.5,6.57H209l-.14.58H201.4l-1.56,6.88h9.68l-.14.57Z"/><path d="M214,539.36l3.52-15.18h4.69a4.8,4.8,0,0,1,3.29,1,3.5,3.5,0,0,1,1.15,2.75,4.77,4.77,0,0,1-.59,2.38,4.23,4.23,0,0,1-1.71,1.67,6,6,0,0,1-2.78.65l-.23,0h-5.39l.07-.6h5.32a5.49,5.49,0,0,0,2.61-.55,3.71,3.71,0,0,0,1.53-1.48A4.38,4.38,0,0,0,226,528a3,3,0,0,0-1-2.34,4.15,4.15,0,0,0-2.88-.88H218l-3.38,14.6Zm10.28,0-2.74-7,.67,0,2.76,7Z"/><path d="M242.57,524.76h-9l-1.5,6.57h7.36l-.13.58h-7.39l-1.7,7.45h-.64l3.52-15.18h9.59Z"/><path d="M250.11,539.59a6.53,6.53,0,0,1-3.13-.77,5.56,5.56,0,0,1-2.25-2.26,7.45,7.45,0,0,1-.83-3.64,11.75,11.75,0,0,1,.48-3.38,9,9,0,0,1,1.45-2.86,7,7,0,0,1,2.42-2,7.26,7.26,0,0,1,3.33-.74,6.23,6.23,0,0,1,3.1.78A5.84,5.84,0,0,1,256.9,527a7.34,7.34,0,0,1,.82,3.62,11.66,11.66,0,0,1-.48,3.36,8.73,8.73,0,0,1-1.45,2.87,6.85,6.85,0,0,1-5.68,2.74Zm0-.6a6.25,6.25,0,0,0,3-.69,6.45,6.45,0,0,0,2.16-1.86,8.27,8.27,0,0,0,1.31-2.68,11.15,11.15,0,0,0,.44-3.12,6.82,6.82,0,0,0-.75-3.32,5.16,5.16,0,0,0-2-2.07,5.58,5.58,0,0,0-2.81-.7,6.32,6.32,0,0,0-3,.69,6.62,6.62,0,0,0-2.18,1.86,8.14,8.14,0,0,0-1.32,2.67,10.81,10.81,0,0,0-.44,3.13,6.82,6.82,0,0,0,.75,3.32,5,5,0,0,0,2,2.07A5.73,5.73,0,0,0,250.16,539Z"/><path d="M261.13,539.36l3.52-15.18h4.69a4.82,4.82,0,0,1,3.29,1,3.53,3.53,0,0,1,1.15,2.75,4.77,4.77,0,0,1-.59,2.38,4.23,4.23,0,0,1-1.71,1.67,6,6,0,0,1-2.79.65l-.22,0h-5.39l.07-.6h5.32a5.49,5.49,0,0,0,2.61-.55,3.62,3.62,0,0,0,1.52-1.48,4.27,4.27,0,0,0,.51-2.08,3,3,0,0,0-1-2.34,4.11,4.11,0,0,0-2.87-.88h-4.12l-3.38,14.6Zm10.28,0-2.74-7,.67,0,2.76,7Z"/><path d="M276.75,539.36l3.51-15.18h.88l2.3,13.16.16,1.28.69-1.21,8.46-13.23h1l-3.52,15.18h-.62l2.94-12.67.44-1.77-9.18,14.44h-.64l-2.49-14.44h0l-.34,1.77-2.92,12.67Z"/><path d="M294.34,539.36l9.55-15.18h.82l2.51,15.18h-.64l-.88-5.22h-7.34l-3.28,5.22Zm4.39-5.82h6.88l-1.45-8.65Z"/><path d="M311.36,539.36l3.52-15.18h.8l6,13.18.53,1.31.32-1.52,3-13h.62l-3.52,15.18h-.81l-6-13.2-.53-1.29-.3,1.52-3,13Z"/><path d="M336.25,532.85l-.14.67h-6.67l.14-.67Z"/></g></g></svg>