<svg xmlns="http://www.w3.org/2000/svg" viewBox="0 0 117.07 120.13"><defs><style>.cls-1,.cls-3{fill:none;stroke-miterlimit:10;}.cls-1{stroke:#000;}.cls-2{fill:#6f4292;}.cls-3{stroke:#1d1d1b;}.cls-4{fill:#f9fee5;}</style></defs><g id="Camada_2" data-name="Camada 2"><g id="Camada_2-2" data-name="Camada 2"><path d="M86.36,3.62,4,77.68a4.36,4.36,0,0,0,1.56,7.39l105.34,34.34a4.37,4.37,0,0,0,5.62-5L93.54,6A4.36,4.36,0,0,0,86.36,3.62Z"/><path class="cls-1" d="M86.36,3.62,4,77.68a4.36,4.36,0,0,0,1.56,7.39l105.34,34.34a4.37,4.37,0,0,0,5.62-5L93.54,6A4.36,4.36,0,0,0,86.36,3.62Z"/><path class="cls-2" d="M84.36,1.62,2,75.68a4.36,4.36,0,0,0,1.56,7.39l105.34,34.34a4.37,4.37,0,0,0,5.62-5L91.54,4A4.36,4.36,0,0,0,84.36,1.62Z"/><path class="cls-3" d="M84.36,1.62,2,75.68a4.36,4.36,0,0,0,1.56,7.39l105.34,34.34a4.37,4.37,0,0,0,5.62-5L91.54,4A4.36,4.36,0,0,0,84.36,1.62Z"/><path class="cls-4" d="M77.77,34.18a7.31,7.31,0,0,1,3.82,2.71,4.64,4.64,0,0,1,.56,4.37l-3.7,11.36q-1.7,5.19-5.77,7t-9.67,0Q57.42,57.71,55.22,54t-.55-9.09L59.42,30.3a9.1,9.1,0,0,1,6.2-.1A6.43,6.43,0,0,1,69.38,33a5.72,5.72,0,0,1,.17,4.74L65.66,49.62a1,1,0,0,0,.47.34.56.56,0,0,0,.48,0,.94.94,0,0,0,.32-.54l3.71-11.35A13.48,13.48,0,0,0,71.18,36a5.84,5.84,0,0,0,0-1.67A9.44,9.44,0,0,1,77.77,34.18Z"/><path class="cls-4" d="M96,44.61,89.1,65.71a8,8,0,0,1-3,.55,12,12,0,0,1-4-.69,7.35,7.35,0,0,1-3.5-2.25,3.57,3.57,0,0,1-.77-3.64l6.88-21.1a7.88,7.88,0,0,1,3-.55,11.86,11.86,0,0,1,4,.69A7.64,7.64,0,0,1,95.22,41,3.64,3.64,0,0,1,96,44.61Z"/><path class="cls-4" d="M62.07,60.57a7.26,7.26,0,0,1,3.82,2.71,4.65,4.65,0,0,1,.57,4.36L62.75,79Q61.07,84.19,57,86t-9.67,0q-5.58-1.82-7.79-5.59T39,71.25l4.74-14.56a9.13,9.13,0,0,1,6.21-.1,6.33,6.33,0,0,1,3.75,2.77,5.68,5.68,0,0,1,.17,4.74L50,76a.86.86,0,0,0,.46.33.56.56,0,0,0,.48,0,1,1,0,0,0,.33-.54l3.7-11.36a13.41,13.41,0,0,0,.54-2.08,5.84,5.84,0,0,0,0-1.67A9.38,9.38,0,0,1,62.07,60.57Z"/><path class="cls-4" d="M75,89l-3.88,3.85a9.66,9.66,0,0,1-3.51-.52A7.87,7.87,0,0,1,63,88.87a6.47,6.47,0,0,1-.45-5.5,7.52,7.52,0,0,1,3.38-4.21,14.62,14.62,0,0,1,6.3-1.86.89.89,0,0,0-.61-.94,5.38,5.38,0,0,0-2.52.37,7.44,7.44,0,0,1-1.83-3.51,8.24,8.24,0,0,1,.23-4.62,5.86,5.86,0,0,1,3.12-3.55,7.12,7.12,0,0,1,5.47-.12,9.25,9.25,0,0,1,4.1,2.45l.76,5,3.2-3.84a10.16,10.16,0,0,1,4.13.49,7.61,7.61,0,0,1,4.4,3.29A6.47,6.47,0,0,1,93,77.75a7.76,7.76,0,0,1-3.39,4.19,13.39,13.39,0,0,1-5.84,2,.84.84,0,0,0,.61.85,4.31,4.31,0,0,0,2.19-.28l2.49,6.64a8.33,8.33,0,0,1-3.35,4.72,6.42,6.42,0,0,1-5.67.55Q75.24,94.87,75,89Z"/></g></g></svg>