<svg xmlns="http://www.w3.org/2000/svg" viewBox="0 0 135.09 131.96"><defs><style>.cls-1,.cls-3{fill:none;stroke-miterlimit:10;}.cls-1{stroke:#000;}.cls-2{fill:#e31713;}.cls-3{stroke:#1d1d1b;}.cls-4{fill:#f9fee5;}</style></defs><g id="Camada_2" data-name="Camada 2"><g id="Camada_2-2" data-name="Camada 2"><path d="M71.77,4.69,83.34,34a3.46,3.46,0,0,0,4.23,2l30.15-9.23a3.46,3.46,0,0,1,4,5L106,59.19a3.46,3.46,0,0,0,1,4.58l26,17.81a3.46,3.46,0,0,1-1.43,6.28l-31.16,4.76a3.45,3.45,0,0,0-2.93,3.67l2.29,31.45a3.46,3.46,0,0,1-5.8,2.79L70.9,109.13a3.48,3.48,0,0,0-4.7,0L43,130.53a3.46,3.46,0,0,1-5.8-2.79l2.3-31.45a3.46,3.46,0,0,0-2.93-3.67L5.44,87.86A3.46,3.46,0,0,1,4,81.58L30,63.77a3.46,3.46,0,0,0,1.05-4.58L15.36,31.85a3.46,3.46,0,0,1,4-5l30.15,9.23a3.46,3.46,0,0,0,4.23-2L65.33,4.69A3.46,3.46,0,0,1,71.77,4.69Z"/><path class="cls-1" d="M71.77,4.69,83.34,34a3.46,3.46,0,0,0,4.23,2l30.15-9.23a3.46,3.46,0,0,1,4,5L106,59.19a3.46,3.46,0,0,0,1,4.58l26,17.81a3.46,3.46,0,0,1-1.43,6.28l-31.16,4.76a3.45,3.45,0,0,0-2.93,3.67l2.29,31.45a3.46,3.46,0,0,1-5.8,2.79L70.9,109.13a3.48,3.48,0,0,0-4.7,0L43,130.53a3.46,3.46,0,0,1-5.8-2.79l2.3-31.45a3.46,3.46,0,0,0-2.93-3.67L5.44,87.86A3.46,3.46,0,0,1,4,81.58L30,63.77a3.46,3.46,0,0,0,1.05-4.58L15.36,31.85a3.46,3.46,0,0,1,4-5l30.15,9.23a3.46,3.46,0,0,0,4.23-2L65.33,4.69A3.46,3.46,0,0,1,71.77,4.69Z"/><path class="cls-2" d="M69.77,2.69,81.34,32a3.46,3.46,0,0,0,4.23,2l30.15-9.23a3.46,3.46,0,0,1,4,5L104,57.19a3.46,3.46,0,0,0,1,4.58l26,17.81a3.46,3.46,0,0,1-1.43,6.28L98.49,90.62a3.45,3.45,0,0,0-2.93,3.67l2.29,31.45a3.46,3.46,0,0,1-5.8,2.79L68.9,107.13a3.48,3.48,0,0,0-4.7,0L41,128.53a3.46,3.46,0,0,1-5.8-2.79l2.3-31.45a3.46,3.46,0,0,0-2.93-3.67L3.44,85.86A3.46,3.46,0,0,1,2,79.58L28,61.77a3.46,3.46,0,0,0,1.05-4.58L13.36,29.85a3.46,3.46,0,0,1,4-5l30.15,9.23a3.46,3.46,0,0,0,4.23-2L63.33,2.69A3.46,3.46,0,0,1,69.77,2.69Z"/><path class="cls-3" d="M69.77,2.69,81.34,32a3.46,3.46,0,0,0,4.23,2l30.15-9.23a3.46,3.46,0,0,1,4,5L104,57.19a3.46,3.46,0,0,0,1,4.58l26,17.81a3.46,3.46,0,0,1-1.43,6.28L98.49,90.62a3.45,3.45,0,0,0-2.93,3.67l2.29,31.45a3.46,3.46,0,0,1-5.8,2.79L68.9,107.13a3.48,3.48,0,0,0-4.7,0L41,128.53a3.46,3.46,0,0,1-5.8-2.79l2.3-31.45a3.46,3.46,0,0,0-2.93-3.67L3.44,85.86A3.46,3.46,0,0,1,2,79.58L28,61.77a3.46,3.46,0,0,0,1.05-4.58L13.36,29.85a3.46,3.46,0,0,1,4-5l30.15,9.23a3.46,3.46,0,0,0,4.23-2L63.33,2.69A3.46,3.46,0,0,1,69.77,2.69Z"/><path class="cls-4" d="M48.83,63.74a8.44,8.44,0,0,1-1.9-.18,3.24,3.24,0,0,1-1.55-.69,32.9,32.9,0,0,1-1.88-5.11A47.11,47.11,0,0,1,42,49.83a3.4,3.4,0,0,1,1.44-1.2,4.69,4.69,0,0,1,2-.43,4.76,4.76,0,0,1,2.66.64,2.09,2.09,0,0,1,1,1.84c0,.6-.1,1.47-.14,2.62s-.07,2.18-.07,3.11a2,2,0,0,0,.08.61.31.31,0,0,0,.32.21l.24,0a2.61,2.61,0,0,1,0-.35v-.41c0-1.14,0-2.44.12-3.92s.17-2.59.28-3.31a4.68,4.68,0,0,1,2.51-.66,5.62,5.62,0,0,1,2.32.4,1.69,1.69,0,0,1,1.11,1.44c0,.77-.11,1.52-.21,2.26s-.24,1.6-.38,2.57-.25,1.61-.29,1.92a.62.62,0,0,0,.25,0,.39.39,0,0,0,.28-.12,1,1,0,0,0,.21-.56c.25-1.25.44-2.57.6-4s.26-2.59.31-3.62a5.2,5.2,0,0,1,3-.73A3.55,3.55,0,0,1,62,49a2.79,2.79,0,0,1,.92,2.19A32.61,32.61,0,0,1,62.06,56c-.3,1.36-.58,2.52-.86,3.49a15.71,15.71,0,0,1-.67,2,3.33,3.33,0,0,1-1.61,1.71,6.33,6.33,0,0,1-2.73.52,7.15,7.15,0,0,1-1.54-.2,5,5,0,0,1-1.33-.45,6,6,0,0,1-.53-1.1,5.64,5.64,0,0,1-.36-1.11.43.43,0,0,0-.46.49,5.07,5.07,0,0,0,.36,1.38A5.46,5.46,0,0,1,48.83,63.74Z"/><path class="cls-4" d="M69.72,63.9a7.09,7.09,0,0,1-5.12-1.8,6.52,6.52,0,0,1-1.92-5,6.54,6.54,0,0,1,2-5,6.47,6.47,0,0,1,4.63-1.72,6.39,6.39,0,0,1,4.49,1.54,4.93,4.93,0,0,1,1.7,3.79,3.52,3.52,0,0,1-1.4,3,5.76,5.76,0,0,1-3.51,1A5.41,5.41,0,0,1,67.75,59a.29.29,0,0,0-.09.25c0,.24.31.45.93.65a6.44,6.44,0,0,0,2.1.31,7.19,7.19,0,0,0,2.14-.3,5.42,5.42,0,0,0,1.56-.7,1.87,1.87,0,0,1,.45.9A5.16,5.16,0,0,1,75,61.34a4,4,0,0,1-.11,1A6,6,0,0,1,73,63.41,9.75,9.75,0,0,1,69.72,63.9ZM69.57,56c.39,0,.59-.15.59-.45s-.21-.42-.62-.42a.67.67,0,0,0-.72.67A1.45,1.45,0,0,0,69.57,56Z"/><path class="cls-4" d="M82.34,49.15v1a8.25,8.25,0,0,0-1.8.3c-.55.16-.82.35-.82.56a.34.34,0,0,0,.19.3,6.14,6.14,0,0,1,2.73-.63,5.5,5.5,0,0,1,4.22,1.77,6.55,6.55,0,0,1,1.65,4.63,6.58,6.58,0,0,1-2,5.19,7.24,7.24,0,0,1-4.94,1.59A7.15,7.15,0,0,1,77,62.69,2.13,2.13,0,0,1,76.17,61V47.59a5.28,5.28,0,0,1,1.35-.54,6.22,6.22,0,0,1,1.6-.21,4.3,4.3,0,0,1,2.23.53A2,2,0,0,1,82.34,49.15Zm-.46,9.6a.39.39,0,0,0,.28.11c.17,0,.29-.12.35-.37A7.69,7.69,0,0,0,82.6,57V55.8a.9.9,0,0,0-.08-.44.28.28,0,0,0-.27-.13.41.41,0,0,0-.27.08v1.57C82,57.35,82,58,81.88,58.75Z"/><path class="cls-4" d="M30.92,81.25a2.46,2.46,0,0,1-2.72-2.78V67.92c0-.59.59-1.09,1.78-1.5a12.28,12.28,0,0,1,4-.62A9,9,0,0,1,40,67.68c1.57,1.34,2.35,3.35,2.35,6a7,7,0,0,1-2.27,5.58,9.15,9.15,0,0,1-6.23,2Zm4.37-8.1a8,8,0,0,0-.11-1.61c-.07-.29-.2-.44-.39-.44a.47.47,0,0,0-.31.12c0,.14,0,.33.07.56a14.53,14.53,0,0,1,.05,1.5V74c0,.53,0,.92,0,1.16s0,.45-.06.62l0,.28a.47.47,0,0,0,.31.12c.19,0,.32-.15.39-.44a8,8,0,0,0,.11-1.61Z"/><path class="cls-4" d="M49.94,81.6a7.1,7.1,0,0,1-5.13-1.8A6.74,6.74,0,0,1,49.5,68.09,6.42,6.42,0,0,1,54,69.63a4.92,4.92,0,0,1,1.69,3.79,3.52,3.52,0,0,1-1.39,3,5.79,5.79,0,0,1-3.52,1A5.34,5.34,0,0,1,48,76.71a.3.3,0,0,0-.1.26c0,.24.31.45.93.65a6.53,6.53,0,0,0,2.1.31,7.25,7.25,0,0,0,2.15-.3,5.47,5.47,0,0,0,1.55-.71,1.79,1.79,0,0,1,.45.91A5.09,5.09,0,0,1,55.22,79a4.13,4.13,0,0,1-.1,1,6,6,0,0,1-1.88,1.1A9.73,9.73,0,0,1,49.94,81.6Zm-.16-7.93c.39,0,.59-.15.59-.45s-.21-.42-.62-.42a.67.67,0,0,0-.72.67A1.45,1.45,0,0,0,49.78,73.67Z"/><path class="cls-4" d="M62.71,72.05a.37.37,0,0,0-.31.36v.06a.1.1,0,0,0,0,.07H63a7.57,7.57,0,0,1,2.5.4,4.21,4.21,0,0,1,1.9,1.3,3.87,3.87,0,0,1,.82,2.54,4.19,4.19,0,0,1-1.65,3.61,7.29,7.29,0,0,1-4.42,1.22,8.64,8.64,0,0,1-4.33-.91A2.94,2.94,0,0,1,56.3,78a2.53,2.53,0,0,1,.28-1.2,2,2,0,0,1,.63-.77,5.8,5.8,0,0,0,1.87.94,8.52,8.52,0,0,0,2.6.39c.37,0,.55-.1.55-.31a.53.53,0,0,0,0-.23h-.32a7.19,7.19,0,0,1-4-1,3.57,3.57,0,0,1-1.68-3.14,4.06,4.06,0,0,1,1.51-3.29A7,7,0,0,1,62.32,68a11,11,0,0,1,2.69.31,8.46,8.46,0,0,1,2.14.8,3.51,3.51,0,0,1,.22,1.42,2.9,2.9,0,0,1-.78,2.19,6.48,6.48,0,0,0-1.46-.54A6.14,6.14,0,0,0,63.58,72,4.7,4.7,0,0,0,62.71,72.05Z"/><path class="cls-4" d="M74.94,70.69v4.64a2.51,2.51,0,0,0,.85,2.27,1.29,1.29,0,0,1,0,.23V78a3.34,3.34,0,0,1-.94,2.59,3.26,3.26,0,0,1-2.31.82,3.54,3.54,0,0,1-2.39-.82,3.85,3.85,0,0,1-1.18-3V70a1.83,1.83,0,0,1,.46-.24c.16-.07.33-.14.51-.24a2.47,2.47,0,0,1-.91-.89,2.76,2.76,0,0,1-.41-1.5,3.19,3.19,0,0,1,1-2.41A3.29,3.29,0,0,1,72,63.74a3.18,3.18,0,0,1,2.36,1,3.22,3.22,0,0,1,1,2.39,3.2,3.2,0,0,1-2.5,3.13c0,.3.12.45.34.45a2,2,0,0,0,1.22-.47A4.08,4.08,0,0,1,74.94,70.69Z"/><path class="cls-4" d="M83.16,77.58a5.92,5.92,0,0,1-1.28-.11.81.81,0,0,0,0,.2c0,.18.12.29.37.35a4,4,0,0,0,.94.09,8.07,8.07,0,0,0,3.12-.54,3.21,3.21,0,0,1,2,1.43,3.89,3.89,0,0,1,.57,2.12A3.8,3.8,0,0,1,87,84.49a8.46,8.46,0,0,1-4.74,1.21,8.16,8.16,0,0,1-4.48-1,2.8,2.8,0,0,1-1.47-2.44,2.38,2.38,0,0,1,.27-1.1,1.74,1.74,0,0,1,.62-.74,4.43,4.43,0,0,0,1.73.8,9.23,9.23,0,0,0,2.35.3,8,8,0,0,0,1.55-.09c.23-.06.35-.17.35-.33a.41.41,0,0,0-.07-.23,7.41,7.41,0,0,1-1.47.13,8.06,8.06,0,0,1-3.55-.65A2.49,2.49,0,0,1,76.5,78a2.67,2.67,0,0,1,.25-1.13,1.63,1.63,0,0,1,.73-.78,3.25,3.25,0,0,1-1.1-1.21,4,4,0,0,1-.45-2,4.23,4.23,0,0,1,1.69-3.55A6.94,6.94,0,0,1,82,68a7.36,7.36,0,0,1,2.51.43v-.82a5.12,5.12,0,0,1,1.83-.27,3.2,3.2,0,0,1,1.74.39,1.8,1.8,0,0,1,.73,1.65,3.4,3.4,0,0,1-.14,1.06,4.7,4.7,0,0,1-.39.83,5.32,5.32,0,0,1,.31,1.92,3.83,3.83,0,0,1-1.48,3.22A6.27,6.27,0,0,1,83.16,77.58Zm-.43-4.75c0-.28-.11-.42-.32-.42s-.29.12-.29.35V74a.38.38,0,0,0,.28.08.26.26,0,0,0,.26-.14,1.38,1.38,0,0,0,.07-.51Z"/><path class="cls-4" d="M102.11,75.44a4,4,0,0,0,.19,1.36,1.51,1.51,0,0,0,.65.8,1.06,1.06,0,0,1,0,.23V78a3.17,3.17,0,0,1-3.34,3.41,3.42,3.42,0,0,1-2.38-.83,3.69,3.69,0,0,1-1.07-2.89,12.09,12.09,0,0,1,.08-1.44c0-.42.08-.72.1-.9s0-.35.07-.5a6,6,0,0,0,0-.7,1.31,1.31,0,0,0-.12-.65.37.37,0,0,0-.34-.2.76.76,0,0,0-.38.09l.15,1.91a14.4,14.4,0,0,0-.21,2.51,4.9,4.9,0,0,0,.6,2.41,4.3,4.3,0,0,1-3.23,1.19,3.46,3.46,0,0,1-2.05-.62,2.17,2.17,0,0,1-1-1.87V73.29a4,4,0,0,1-.7-2.4,4.28,4.28,0,0,1,.7-2.46H92a1.89,1.89,0,0,1,1.42.62c-.34.32-.52.59-.52.8s.14.36.41.36a4.05,4.05,0,0,1,1.58-1.48,4.91,4.91,0,0,1,2.41-.58,5.18,5.18,0,0,1,3.29,1A4.67,4.67,0,0,1,102.14,73Z"/></g></g></svg>