<svg xmlns="http://www.w3.org/2000/svg" viewBox="0 0 126.63 126.52"><defs><style>.cls-1,.cls-3{fill:none;stroke-miterlimit:10;}.cls-1{stroke:#000;}.cls-2{fill:#74b62b;}.cls-3{stroke:#1d1d1b;}.cls-4{fill:#f9fee5;}</style></defs><g id="Camada_2" data-name="Camada 2"><g id="Camada_2-2" data-name="Camada 2"><path d="M108.73,24.58,96.82,51.75a3.25,3.25,0,0,0,1.44,4.18l26.15,14a3.26,3.26,0,0,1-.7,6L95,83.59a3.26,3.26,0,0,0-2.37,3.73L98,116.51a3.26,3.26,0,0,1-5.15,3.2L69,102.05a3.24,3.24,0,0,0-4.39.48L45.14,124.9a3.26,3.26,0,0,1-5.71-2l-1-29.66a3.27,3.27,0,0,0-3.12-3.14L5.62,88.8a3.26,3.26,0,0,1-2-5.73L26.17,63.76a3.26,3.26,0,0,0,.51-4.39l-17.47-24a3.26,3.26,0,0,1,3.24-5.12l29.14,5.58a3.26,3.26,0,0,0,3.76-2.34L53.2,4.9a3.26,3.26,0,0,1,6-.66L73,30.5A3.26,3.26,0,0,0,77.2,32l27.27-11.7A3.25,3.25,0,0,1,108.73,24.58Z"/><path class="cls-1" d="M108.73,24.58,96.82,51.75a3.25,3.25,0,0,0,1.44,4.18l26.15,14a3.26,3.26,0,0,1-.7,6L95,83.59a3.26,3.26,0,0,0-2.37,3.73L98,116.51a3.26,3.26,0,0,1-5.15,3.2L69,102.05a3.24,3.24,0,0,0-4.39.48L45.14,124.9a3.26,3.26,0,0,1-5.71-2l-1-29.66a3.27,3.27,0,0,0-3.12-3.14L5.62,88.8a3.26,3.26,0,0,1-2-5.73L26.17,63.76a3.26,3.26,0,0,0,.51-4.39l-17.47-24a3.26,3.26,0,0,1,3.24-5.12l29.14,5.58a3.26,3.26,0,0,0,3.76-2.34L53.2,4.9a3.26,3.26,0,0,1,6-.66L73,30.5A3.26,3.26,0,0,0,77.2,32l27.27-11.7A3.25,3.25,0,0,1,108.73,24.58Z"/><path class="cls-2" d="M106.73,22.58,94.82,49.75a3.25,3.25,0,0,0,1.44,4.18l26.15,14a3.26,3.26,0,0,1-.7,6L93,81.59a3.26,3.26,0,0,0-2.37,3.73L96,114.51a3.26,3.26,0,0,1-5.15,3.2L67,100.05a3.24,3.24,0,0,0-4.39.48L43.14,122.9a3.26,3.26,0,0,1-5.71-2l-1-29.66a3.27,3.27,0,0,0-3.12-3.14L3.62,86.8a3.26,3.26,0,0,1-2-5.73L24.17,61.76a3.26,3.26,0,0,0,.51-4.39l-17.47-24a3.26,3.26,0,0,1,3.24-5.12l29.14,5.58a3.26,3.26,0,0,0,3.76-2.34L51.2,2.9a3.26,3.26,0,0,1,6-.66L71,28.5A3.26,3.26,0,0,0,75.2,30l27.27-11.7A3.25,3.25,0,0,1,106.73,22.58Z"/><path class="cls-3" d="M106.73,22.58,94.82,49.75a3.25,3.25,0,0,0,1.44,4.18l26.15,14a3.26,3.26,0,0,1-.7,6L93,81.59a3.26,3.26,0,0,0-2.37,3.73L96,114.51a3.26,3.26,0,0,1-5.15,3.2L67,100.05a3.24,3.24,0,0,0-4.39.48L43.14,122.9a3.26,3.26,0,0,1-5.71-2l-1-29.66a3.27,3.27,0,0,0-3.12-3.14L3.62,86.8a3.26,3.26,0,0,1-2-5.73L24.17,61.76a3.26,3.26,0,0,0,.51-4.39l-17.47-24a3.26,3.26,0,0,1,3.24-5.12l29.14,5.58a3.26,3.26,0,0,0,3.76-2.34L51.2,2.9a3.26,3.26,0,0,1,6-.66L71,28.5A3.26,3.26,0,0,0,75.2,30l27.27-11.7A3.25,3.25,0,0,1,106.73,22.58Z"/><path class="cls-4" d="M35.94,52.44a2,2,0,0,1-1.3-.89,2.09,2.09,0,0,1-.1-1.64l2.08-7.55c.12-.42.65-.67,1.58-.73a9.29,9.29,0,0,1,3,.35,6.69,6.69,0,0,1,4,2.54,5.57,5.57,0,0,1,.49,4.77,5.19,5.19,0,0,1-2.73,3.55,6.78,6.78,0,0,1-4.85.19Zm4.73-4.93a6.62,6.62,0,0,0,.24-1.18c0-.22,0-.35-.19-.39a.36.36,0,0,0-.25,0q0,.15-.06.42a10.19,10.19,0,0,1-.26,1.08L40,48c-.11.38-.19.65-.26.82s-.12.31-.16.43a1.59,1.59,0,0,0-.07.2.43.43,0,0,0,.2.15c.13,0,.26,0,.36-.24a6.44,6.44,0,0,0,.4-1.14Z"/><path class="cls-4" d="M49.49,56.45a5.26,5.26,0,0,1-3.31-2.3,5,5,0,0,1,5.67-7.46,4.73,4.73,0,0,1,2.91,2,3.67,3.67,0,0,1,.47,3,2.61,2.61,0,0,1-1.6,1.89,4.23,4.23,0,0,1-2.71,0,4,4,0,0,1-1.87-1,.21.21,0,0,0-.12.17c0,.17.13.38.53.64a4.82,4.82,0,0,0,1.45.64,5.05,5.05,0,0,0,1.59.21,4.05,4.05,0,0,0,1.26-.2,1.43,1.43,0,0,1,.14.74,3.92,3.92,0,0,1-.12.9,2.75,2.75,0,0,1-.27.67,4.23,4.23,0,0,1-1.56.42A7,7,0,0,1,49.49,56.45ZM51,50.74c.28.08.45,0,.51-.2s-.07-.35-.37-.43a.5.5,0,0,0-.64.34A1.09,1.09,0,0,0,51,50.74Z"/><path class="cls-4" d="M60.53,52.13a.28.28,0,0,0-.29.21l0,0v0l.25.06.2,0a5.7,5.7,0,0,1,1.71.79,3.15,3.15,0,0,1,1.11,1.3,2.92,2.92,0,0,1,.08,2,3.09,3.09,0,0,1-1.9,2.25,5.31,5.31,0,0,1-3.4,0,6.3,6.3,0,0,1-2.92-1.51,2.17,2.17,0,0,1-.59-2.23,1.9,1.9,0,0,1,.44-.8,1.38,1.38,0,0,1,.6-.43,4.18,4.18,0,0,0,1.16,1,6.11,6.11,0,0,0,1.78.79c.26.08.41,0,.45-.11a.55.55,0,0,0,0-.17l-.15,0-.09,0a5.18,5.18,0,0,1-2.65-1.49,2.62,2.62,0,0,1-.59-2.58,3,3,0,0,1,1.73-2A5.19,5.19,0,0,1,61,49.19a8.49,8.49,0,0,1,1.87.75,6.3,6.3,0,0,1,1.37,1A2.73,2.73,0,0,1,64.16,52a2.16,2.16,0,0,1-1,1.41,4.87,4.87,0,0,0-.93-.68,5.22,5.22,0,0,0-1.07-.46A4.88,4.88,0,0,0,60.53,52.13Z"/><path class="cls-4" d="M69.56,53.58l-.92,3.32a1.85,1.85,0,0,0,.16,1.8l0,.16,0,.15a2.49,2.49,0,0,1-1.19,1.67,2.37,2.37,0,0,1-1.81.13,2.56,2.56,0,0,1-1.55-1.06,2.85,2.85,0,0,1-.25-2.41l1.51-5.46a1.51,1.51,0,0,1,.38-.08l.41-.07a1.82,1.82,0,0,1-.48-.82,2,2,0,0,1,0-1.15,2.4,2.4,0,0,1,1.18-1.54,2.43,2.43,0,0,1,1.89-.2,2.36,2.36,0,0,1,1.51,1.15,2.43,2.43,0,0,1,.21,1.91,2.29,2.29,0,0,1-.92,1.31,2.34,2.34,0,0,1-1.49.43c-.06.22,0,.34.16.39a1.44,1.44,0,0,0,1-.1A3.88,3.88,0,0,1,69.56,53.58Z"/><path class="cls-4" d="M74.08,60.14a5.07,5.07,0,0,1-.9-.33.42.42,0,0,0-.06.14c0,.12,0,.22.2.32a3.28,3.28,0,0,0,.65.25,6.19,6.19,0,0,0,2.34.23,2.34,2.34,0,0,1,1.13,1.41,2.83,2.83,0,0,1,0,1.63,2.8,2.8,0,0,1-2,2.05,6.3,6.3,0,0,1-3.64-.07,6.07,6.07,0,0,1-3-1.62,2.08,2.08,0,0,1-.57-2,1.87,1.87,0,0,1,.41-.74,1.26,1.26,0,0,1,.59-.4,3.4,3.4,0,0,0,1.08.91,6.71,6.71,0,0,0,1.63.69,7.4,7.4,0,0,0,1.13.24c.17,0,.28-.06.31-.17a.37.37,0,0,0,0-.18,5.27,5.27,0,0,1-1.07-.2,6.13,6.13,0,0,1-2.42-1.16,1.85,1.85,0,0,1-.66-2,2,2,0,0,1,.4-.77,1.28,1.28,0,0,1,.67-.41,2.45,2.45,0,0,1-.54-1.08,3,3,0,0,1,.07-1.52,3.16,3.16,0,0,1,1.91-2.21,5.22,5.22,0,0,1,3.4-.06,5.38,5.38,0,0,1,1.71.81l.16-.59a3.75,3.75,0,0,1,1.36.17,2.38,2.38,0,0,1,1.18.62,1.36,1.36,0,0,1,.19,1.32,2.41,2.41,0,0,1-.31.73,2.9,2.9,0,0,1-.44.52,4,4,0,0,1-.16,1.44,2.87,2.87,0,0,1-1.69,2A4.73,4.73,0,0,1,74.08,60.14Zm.63-3.49q.08-.3-.15-.36c-.14,0-.23,0-.28.19l-.23.87a.27.27,0,0,0,.18.11.18.18,0,0,0,.21-.05.72.72,0,0,0,.15-.35Z"/><path class="cls-4" d="M88.07,62.35a3.06,3.06,0,0,0-.13,1,1.2,1.2,0,0,0,.31.71.5.5,0,0,1,0,.16l0,.15a2.32,2.32,0,0,1-3.06,1.78,2.52,2.52,0,0,1-1.54-1.06,2.73,2.73,0,0,1-.2-2.28,9.34,9.34,0,0,1,.34-1l.26-.62.14-.35a3.51,3.51,0,0,0,.16-.49,1,1,0,0,0,0-.49.3.3,0,0,0-.21-.21.57.57,0,0,0-.29,0L83.55,61a10.58,10.58,0,0,0-.64,1.75,3.64,3.64,0,0,0,0,1.85,3.23,3.23,0,0,1-2.55.21A2.57,2.57,0,0,1,79,64a1.59,1.59,0,0,1-.35-1.53l1.12-4.07a3,3,0,0,1,0-1.85,3.26,3.26,0,0,1,1-1.63l1.49.41a1.38,1.38,0,0,1,.89.73c-.31.16-.48.32-.52.47s0,.28.22.34a2.94,2.94,0,0,1,1.42-.75,3.61,3.61,0,0,1,1.84.06,3.79,3.79,0,0,1,2.16,1.36,3.43,3.43,0,0,1,.37,3.1Z"/><path class="cls-4" d="M34.4,61.13l5,1.37a3.08,3.08,0,0,1,0,1.83,3,3,0,0,1-.86,1.5l-.34-.1-.69,2.52a6.62,6.62,0,0,1-4.76.23A7.27,7.27,0,0,1,30,67.09a5.17,5.17,0,0,1-1.67-2.44,6.2,6.2,0,0,1,.05-3.49,5.71,5.71,0,0,1,2.82-3.8,6.25,6.25,0,0,1,4.63-.26,7.94,7.94,0,0,1,2.38,1.08,5.85,5.85,0,0,1,1.58,1.49,8.09,8.09,0,0,1-.47,1.2,4.27,4.27,0,0,1-.61,1l-4.42-1.22a3.16,3.16,0,0,0-1.32,1.85A2.32,2.32,0,0,0,33,64.17a1.39,1.39,0,0,0,.93.79c.18.05.29,0,.32-.11l.06-.2-.1,0a1.2,1.2,0,0,1-.8-.69,2,2,0,0,1,0-1.34A2.43,2.43,0,0,1,34.4,61.13Z"/><path class="cls-4" d="M40.7,70.51a3.15,3.15,0,0,1-1.49-.8,1.28,1.28,0,0,1-.36-1.3l1.2-4.32a3,3,0,0,1,0-1.86,3.19,3.19,0,0,1,1-1.62l1.28.35a1.61,1.61,0,0,1,1.24,1,2.39,2.39,0,0,0-.53.49,1.57,1.57,0,0,0-.3.48.3.3,0,0,0,0,.25.37.37,0,0,0,.21.14,2.84,2.84,0,0,1,1.59-1.41,3.09,3.09,0,0,1,1.81,0A3.34,3.34,0,0,1,48.12,63a5,5,0,0,1-.2,1.71,4.08,4.08,0,0,1-.87,1.65,3.23,3.23,0,0,1-.86,0,4.62,4.62,0,0,1-1-.18,5.52,5.52,0,0,1-.9-.32,4.84,4.84,0,0,1-.55-.29.25.25,0,0,0-.12.17c0,.09,0,.16.11.24s.27.16.51.29L43,70.53A4.11,4.11,0,0,1,40.7,70.51Z"/><path class="cls-4" d="M55.47,70a3.11,3.11,0,0,0-.14,1,1.2,1.2,0,0,0,.31.71.8.8,0,0,1,0,.16l0,.15a2.44,2.44,0,0,1-1.23,1.65,2.31,2.31,0,0,1-1.74.16,2.45,2.45,0,0,1-1.08-.63A1.78,1.78,0,0,1,51,72.13a.26.26,0,0,0-.36.2.87.87,0,0,0,.15.61A3.07,3.07,0,0,1,49,72.85a3.65,3.65,0,0,1-2.24-1.52,3.13,3.13,0,0,1-.28-2.62,3,3,0,0,1,1.63-2.07,3.61,3.61,0,0,1,2.53-.11,6.67,6.67,0,0,1,.92.33l.31.16.07-.14c0-.15-.06-.28-.29-.4a6.23,6.23,0,0,0-1-.34,4.43,4.43,0,0,0-2.3-.08,3.48,3.48,0,0,1,.07-1.88,2.1,2.1,0,0,1,.4-.85,7.8,7.8,0,0,1,1.67-.07,9.05,9.05,0,0,1,2,.33,5,5,0,0,1,3,1.82,3.37,3.37,0,0,1,.36,2.94ZM51,69.21c-.24-.07-.38,0-.44.22s0,.34.32.41a.58.58,0,0,0,.46,0,.7.7,0,0,0,.27-.44Zm1.78-6a9.08,9.08,0,0,0-2.22-.32l2.76-2.31a2.38,2.38,0,0,1,1.51-.07,1.61,1.61,0,0,1,1.06.78A1.54,1.54,0,0,1,56,62.49a1.35,1.35,0,0,1-.72.88,3.2,3.2,0,0,1-1.13.28l-.21,0A9.12,9.12,0,0,0,52.78,63.23Z"/><path class="cls-4" d="M58,75.29a3.14,3.14,0,0,1-1.5-.8,1.28,1.28,0,0,1-.36-1.3l1.09-3.94.26.08c.28.07.45,0,.5-.16s0-.06,0-.11l-1.4-.39a3.06,3.06,0,0,1,0-1.85,3.35,3.35,0,0,1,1-1.64l.73.2A3.34,3.34,0,0,1,60,63.55a3.72,3.72,0,0,1,2.57-.08,5.22,5.22,0,0,1,1.76.82,3.57,3.57,0,0,1,1,1.06,2.33,2.33,0,0,1,1.17-.88,2.58,2.58,0,0,1,1.51,0,2.4,2.4,0,0,1,1.5,1.15,2.43,2.43,0,0,1,.21,1.91,2.29,2.29,0,0,1-.92,1.31,2.32,2.32,0,0,1-1.48.44c-.06.21,0,.34.15.38a1.52,1.52,0,0,0,1-.09,3.54,3.54,0,0,1,.31.46l-.92,3.33A1.86,1.86,0,0,0,68,75.12a.9.9,0,0,1,0,.16l0,.16a2.49,2.49,0,0,1-1.18,1.66,2.35,2.35,0,0,1-1.82.13,2.61,2.61,0,0,1-1.55-1,2.84,2.84,0,0,1-.24-2.42l1.5-5.46a1.61,1.61,0,0,1,.38-.08,3.2,3.2,0,0,0,.41-.07,1.77,1.77,0,0,1-.55-1.23,3.82,3.82,0,0,1-.39.67,4.69,4.69,0,0,1-1.68-.23,6.64,6.64,0,0,1-.92-.31,5.26,5.26,0,0,1-.72-.33.25.25,0,0,0-.11.15c0,.1.09.22.33.38a4.94,4.94,0,0,0,1.23.47,9.38,9.38,0,0,0,1.62.31l-.7,2.54-1.73-.47-1.44,5.21A4.07,4.07,0,0,1,58,75.29Z"/><path class="cls-4" d="M72.1,79.34A4.79,4.79,0,0,1,69,77a5.24,5.24,0,0,1-.3-4,4.77,4.77,0,0,1,2.46-3.18,4.92,4.92,0,0,1,3.6-.27,4.87,4.87,0,0,1,2.66,1.66,2.88,2.88,0,0,1,.5,2.65A2.28,2.28,0,0,1,75,75.6a2.3,2.3,0,0,1-1.28-.84,1.79,1.79,0,0,1-.33-1.35c-.25-.07-.4,0-.45.17a1.54,1.54,0,0,0,.3,1.29A2.62,2.62,0,0,0,74.78,76a3.21,3.21,0,0,0,1.84,0,2.91,2.91,0,0,1,0,1.68,2.42,2.42,0,0,1-1.43,1.59A4.57,4.57,0,0,1,72.1,79.34Z"/><path class="cls-4" d="M78.07,79.67a4.93,4.93,0,0,1-.39-4A5.06,5.06,0,0,1,80,72.47a4.77,4.77,0,0,1,3.77-.37,4.65,4.65,0,0,1,3,2.31,5.07,5.07,0,0,1,.31,3.91,5,5,0,0,1-2.2,3.15,4.69,4.69,0,0,1-3.75.36A4.87,4.87,0,0,1,78.07,79.67Zm4.16-2.85-.4,1.47a.27.27,0,0,0,.17.11.21.21,0,0,0,.22,0,.59.59,0,0,0,.15-.3l.33-1.2a6,6,0,0,0,.23-1.09q0-.28-.18-.33a.28.28,0,0,0-.22,0C82.42,76,82.33,76.49,82.23,76.82Z"/></g></g></svg>