<svg width="56" height="56" viewBox="0 0 56 56" fill="none" xmlns="http://www.w3.org/2000/svg">
<path d="M53.76 0H2.24C1.001 0 0 1.00071 0 2.23935V53.7444C0 54.983 1.001 55.9837 2.24 55.9837H53.76C54.999 55.9837 56 54.983 56 53.7444V2.23935C56 1.00071 54.999 0 53.76 0ZM34.055 16.7181H43.743V19.0764H34.055V16.7181ZM28 36.1655C27.5469 37.0254 26.8998 37.7681 26.11 38.3348C25.284 38.9087 24.367 39.3285 23.394 39.5735C22.376 39.8462 21.3259 39.9804 20.272 39.9724H8.68V16.1023H19.95C21.091 16.1023 22.127 16.2073 23.072 16.4032C24.01 16.5992 24.808 16.9351 25.48 17.3899C26.145 17.8448 26.67 18.4536 27.041 19.2094C27.405 19.9582 27.594 20.8959 27.594 22.0086C27.594 23.2122 27.321 24.206 26.775 25.0107C26.222 25.8155 25.424 26.4663 24.339 26.9771C25.816 27.397 26.901 28.1458 27.615 29.1955C28.343 30.2592 28.7 31.5328 28.7 33.0304C28.7 34.248 28.469 35.2907 28 36.1655ZM47.516 32.4705H35.028C35.028 33.8281 35.497 35.1298 36.204 35.8296C36.918 36.5224 37.94 36.8723 39.277 36.8723C40.243 36.8723 41.062 36.6273 41.762 36.1445C42.455 35.6616 42.875 35.1508 43.029 34.6189H47.215C46.543 36.6973 45.521 38.1809 44.135 39.0766C42.763 39.9724 41.083 40.4202 39.13 40.4202C37.765 40.4202 36.54 40.1963 35.441 39.7694C34.384 39.3565 33.432 38.7267 32.648 37.915C31.875 37.0813 31.2775 36.1008 30.891 35.0318C30.464 33.8491 30.254 32.6035 30.268 31.3509C30.268 30.0562 30.485 28.8526 30.905 27.7329C31.71 25.5566 33.383 23.8141 35.518 22.9113C36.659 22.4355 37.884 22.1975 39.123 22.2115C40.593 22.2115 41.867 22.4915 42.973 23.0653C44.0377 23.6132 44.9622 24.3986 45.675 25.3606C46.382 26.3193 46.879 27.411 47.194 28.6427C47.495 29.8533 47.6 31.1269 47.516 32.4705ZM38.976 25.7805C38.22 25.7805 37.583 25.9135 37.093 26.1724C36.603 26.4313 36.197 26.7532 35.889 27.1241C35.5957 27.4822 35.3789 27.8966 35.252 28.3417C35.14 28.7126 35.063 29.0905 35.035 29.4754H42.77C42.658 28.2648 42.238 27.369 41.678 26.7392C41.09 26.1164 40.145 25.7805 38.976 25.7805ZM21.581 25.0737C22.19 24.6328 22.484 23.905 22.484 22.9043C22.505 22.4285 22.407 21.9596 22.197 21.5327C22.008 21.1898 21.728 20.9029 21.385 20.7C21.0294 20.4844 20.6344 20.3416 20.223 20.2801C19.775 20.1961 19.32 20.1541 18.872 20.1611H13.951V25.7385H19.278C20.195 25.7455 20.972 25.5216 21.581 25.0737ZM22.407 30.1122C21.721 29.5874 20.804 29.3285 19.663 29.3285H13.937V35.9065H19.551C20.076 35.9065 20.559 35.8576 21.028 35.7596C21.497 35.6616 21.917 35.4937 22.274 35.2557C22.631 35.0248 22.918 34.7099 23.135 34.304C23.345 33.8981 23.45 33.3803 23.45 32.7575C23.45 31.5188 23.1 30.6441 22.407 30.1122Z" fill="#232323"/>
</svg>
