<svg width="41" height="41" viewBox="0 0 41 41" fill="none" xmlns="http://www.w3.org/2000/svg">
<path d="M36.4444 0.998047C37.6527 0.998047 38.8114 1.46616 39.6657 2.29942C40.52 3.13267 41 4.2628 41 5.4412V36.5433C41 37.7216 40.52 38.8518 39.6657 39.685C38.8114 40.5183 37.6527 40.9864 36.4444 40.9864H4.55556C3.34735 40.9864 2.18862 40.5183 1.33429 39.685C0.479959 38.8518 0 37.7216 0 36.5433V5.4412C0 4.2628 0.479959 3.13267 1.33429 2.29942C2.18862 1.46616 3.34735 0.998047 4.55556 0.998047H36.4444ZM35.3056 35.4325V23.6581C35.3056 21.7373 34.5232 19.8952 33.1307 18.537C31.7381 17.1788 29.8494 16.4158 27.88 16.4158C25.9439 16.4158 23.6889 17.571 22.5956 19.3038V16.8379H16.2406V35.4325H22.5956V24.4801C22.5956 22.7695 24.0078 21.3699 25.7617 21.3699C26.6074 21.3699 27.4185 21.6976 28.0166 22.2808C28.6146 22.8641 28.9506 23.6552 28.9506 24.4801V35.4325H35.3056ZM8.83778 13.35C9.85267 13.35 10.826 12.9568 11.5436 12.2569C12.2613 11.5569 12.6644 10.6076 12.6644 9.61776C12.6644 7.55169 10.9561 5.8633 8.83778 5.8633C7.81684 5.8633 6.83772 6.25885 6.11581 6.96295C5.3939 7.66705 4.98833 8.62201 4.98833 9.61776C4.98833 11.6838 6.71944 13.35 8.83778 13.35ZM12.0039 35.4325V16.8379H5.69444V35.4325H12.0039Z" fill="#232323"/>
</svg>
