<svg xmlns="http://www.w3.org/2000/svg" viewBox="0 0 120.13 117.07"><defs><style>.cls-1,.cls-3{fill:none;stroke-miterlimit:10;}.cls-1{stroke:#000;}.cls-2{fill:#3669b0;}.cls-3{stroke:#1d1d1b;}.cls-4{fill:#f9fee5;}</style></defs><g id="Camada_2" data-name="Camada 2"><g id="Camada_2-2" data-name="Camada 2"><path d="M37.06,5.51,2.72,110.85a4.36,4.36,0,0,0,5,5.62l108.4-22.93a4.36,4.36,0,0,0,2.34-7.18L44.45,4A4.36,4.36,0,0,0,37.06,5.51Z"/><path class="cls-1" d="M37.06,5.51,2.72,110.85a4.36,4.36,0,0,0,5,5.62l108.4-22.93a4.36,4.36,0,0,0,2.34-7.18L44.45,4A4.36,4.36,0,0,0,37.06,5.51Z"/><path class="cls-2" d="M35.06,3.51.72,108.85a4.36,4.36,0,0,0,5.05,5.62l108.4-22.93a4.36,4.36,0,0,0,2.34-7.18L42.45,2A4.36,4.36,0,0,0,35.06,3.51Z"/><path class="cls-3" d="M35.06,3.51.72,108.85a4.36,4.36,0,0,0,5.05,5.62l108.4-22.93a4.36,4.36,0,0,0,2.34-7.18L42.45,2A4.36,4.36,0,0,0,35.06,3.51Z"/><path class="cls-4" d="M30.51,97.14a5.63,5.63,0,0,1-2.9,0,2.13,2.13,0,0,1-1.53-1.46l-.38-1.19a3.43,3.43,0,0,0,1.69-1.9,1.16,1.16,0,0,0,.1-.62.31.31,0,0,0-.41-.27h0s0,0-.05,0a3.08,3.08,0,0,1-2.52,2.52,3.31,3.31,0,0,1-1.86-.08A4.11,4.11,0,0,1,21,92.89l-.08,0c-.23,0-.33.17-.29.37a1,1,0,0,0,.26.43,3.9,3.9,0,0,0,1.57,1.08,2.81,2.81,0,0,0,1.38.22l.42,2.46a5.91,5.91,0,0,1-1.48,1.08,10.85,10.85,0,0,1-2.39.74,6.51,6.51,0,0,1-2.95,0,2.41,2.41,0,0,1-2-1.8c-.24-1.12-.6-4-1.1-8.49-.24-2.36-.39-4-.44-5a5.81,5.81,0,0,1,3.67-2,6.4,6.4,0,0,1,3.27,0L22,84.26l-.05,2a1.2,1.2,0,0,0,0,.38c.06.3.27.42.61.36l.15-5.36A6.88,6.88,0,0,1,24,80.84a7.93,7.93,0,0,1,1.82-.6,4.92,4.92,0,0,1,2.92.05,2.89,2.89,0,0,1,1.54,1.92l.31.91c2.21,6.56,3.43,10.44,3.69,11.63A5.56,5.56,0,0,1,30.51,97.14Z"/><path class="cls-4" d="M36.77,94A7.46,7.46,0,0,1,33.48,89,7.67,7.67,0,0,1,34.31,83a7.17,7.17,0,0,1,4.8-3.13,7,7,0,0,1,5.68,1,7.82,7.82,0,0,1,3.15,5,7.63,7.63,0,0,1-.78,5.77,7,7,0,0,1-4.79,3.08A7.25,7.25,0,0,1,36.77,94Zm3.61-6.73.48,2.26a.5.5,0,0,0,.31,0,.34.34,0,0,0,.27-.21,1,1,0,0,0,0-.51L41,87a9.54,9.54,0,0,0-.45-1.63c-.13-.25-.29-.36-.48-.32a.42.42,0,0,0-.28.19C40.09,86.11,40.27,86.78,40.38,87.3Z"/><path class="cls-4" d="M49.55,84.35l.8-.17c.43-.09.62-.28.56-.56a.77.77,0,0,0-.06-.15L48,84.08a7.18,7.18,0,0,1-.71-2A8.24,8.24,0,0,1,47,80.27c.43-.41,1-1,1.73-1.84.12-.64.23-1.63.35-3a5,5,0,0,1,.08-.54,9.49,9.49,0,0,1,2.24-.74,12.61,12.61,0,0,1,2.6-.27l.66,3.16,2.24-.47a4.94,4.94,0,0,1,1.31,2.51,5.85,5.85,0,0,1,.11,1.47,4,4,0,0,1-.29,1.37l-1.85.39.42,2c.23,1.1.81,1.55,1.73,1.36l.55-.12a6.52,6.52,0,0,1,.63,1.65,3.46,3.46,0,0,1-.54,3,5,5,0,0,1-3,1.63,4.81,4.81,0,0,1-3.62-.46,4.65,4.65,0,0,1-2-3.21Z"/><path class="cls-4" d="M65.42,77.38l1.08,5.11c.28,1.28.76,2.05,1.46,2.3A2.33,2.33,0,0,1,68,85l0,.23a3.82,3.82,0,0,1-.43,3.07,3.65,3.65,0,0,1-2.36,1.44,3.91,3.91,0,0,1-2.81-.35,4.33,4.33,0,0,1-2-3.08L58.69,78a2.38,2.38,0,0,1,.45-.38,4.78,4.78,0,0,0,.51-.38,2.71,2.71,0,0,1-1.22-.77,3.07,3.07,0,0,1-.8-1.55A3.63,3.63,0,0,1,58.14,72a3.72,3.72,0,0,1,2.41-1.59,3.63,3.63,0,0,1,2.83.5A3.67,3.67,0,0,1,65,73.34a3.62,3.62,0,0,1-2,4c.07.33.23.47.48.41a2.32,2.32,0,0,0,1.23-.8A4.83,4.83,0,0,1,65.42,77.38Z"/><path class="cls-4" d="M70.81,86.83a7.46,7.46,0,0,1-3.29-5.08,7.67,7.67,0,0,1,.83-5.92,7.17,7.17,0,0,1,4.8-3.13,7,7,0,0,1,5.68,1,7.82,7.82,0,0,1,3.15,5,7.63,7.63,0,0,1-.78,5.77,7,7,0,0,1-4.79,3.08A7.29,7.29,0,0,1,70.81,86.83Zm3.61-6.73.48,2.26a.5.5,0,0,0,.31,0,.34.34,0,0,0,.27-.21,1,1,0,0,0,0-.51l-.39-1.84a9.54,9.54,0,0,0-.45-1.63c-.13-.25-.29-.36-.48-.32a.42.42,0,0,0-.28.19C74.13,78.91,74.31,79.58,74.42,80.1Z"/><path class="cls-4" d="M96.61,76.24a4.55,4.55,0,0,0,.52,1.46,1.73,1.73,0,0,0,.91.73,1.54,1.54,0,0,1,.07.24l0,.24a3.56,3.56,0,0,1-2.88,4.53,3.92,3.92,0,0,1-2.82-.36,4.12,4.12,0,0,1-1.84-2.93,15.17,15.17,0,0,1-.26-1.61c0-.47-.07-.81-.09-1s0-.39,0-.57a5.7,5.7,0,0,0-.12-.77,1.35,1.35,0,0,0-.29-.69.41.41,0,0,0-.42-.14.72.72,0,0,0-.39.19l.61,2.07a15.64,15.64,0,0,0,.35,2.8,5.51,5.51,0,0,0,1.22,2.52A4.84,4.84,0,0,1,87.91,85a3.88,3.88,0,0,1-2.4-.21A2.46,2.46,0,0,1,84,83l-1.32-6.24a4.65,4.65,0,0,1-1.32-2.48,4.94,4.94,0,0,1,.19-2.87l2.3-.49a2.08,2.08,0,0,1,1.7.36,1.45,1.45,0,0,0-.38,1c.06.27.23.37.54.31a4.4,4.4,0,0,1,1.39-2,5.41,5.41,0,0,1,2.51-1.21,5.76,5.76,0,0,1,3.86.33,5.24,5.24,0,0,1,2.66,3.91Z"/></g></g></svg>